<?xml version="1.0" encoding="UTF-8"?>
<svg id="b" xmlns="http://www.w3.org/2000/svg" viewBox="0 0 91.32 120.99">
  <defs>
    <style>
      .cls-1 {
        fill: #211715;
      }

      .cls-2 {
        fill: #ffda71;
      }

      .cls-3 {
        fill: #f2635f;
      }
    </style>
  </defs>
  <g id="c">
    <path class="cls-3" d="M43.54,76.54s12.45,21.57,24.39,42.24c2.04-4.37,4.08-8.75,6.12-13.12,4.81.42,9.62.84,14.42,1.26-11.94-20.68-24.39-42.24-24.39-42.24"/>
    <path class="cls-3" d="M47.83,76.54l-24.39,42.24c-2.04-4.37-4.08-8.75-6.12-13.12-4.81.42-9.62.84-14.42,1.26,11.94-20.68,24.39-42.24,24.39-42.24"/>
    <path class="cls-1" d="M41.63,77.66c5.5,9.52,11,19.05,16.5,28.57l7.89,13.67c.78,1.34,3.11,1.54,3.83,0,2.04-4.37,4.08-8.75,6.12-13.12l-1.91,1.1c4.81.42,9.62.84,14.42,1.26,1.72.15,2.7-1.98,1.91-3.34-7.56-13.1-15.12-26.19-22.69-39.29-.57-.98-1.13-1.97-1.7-2.95-1.43-2.47-5.26-.24-3.83,2.24,5.5,9.52,11,19.05,16.5,28.57,2.63,4.56,5.26,9.11,7.89,13.67l1.91-3.34c-4.81-.42-9.62-.84-14.42-1.26-.71-.06-1.61.45-1.91,1.1-2.04,4.37-4.08,8.75-6.12,13.12h3.83c-7.56-13.1-15.12-26.19-22.69-39.29-.57-.98-1.13-1.97-1.7-2.95-1.43-2.47-5.26-.24-3.83,2.24h0Z"/>
    <path class="cls-1" d="M45.91,75.42c-5.5,9.52-11,19.05-16.5,28.57l-7.89,13.67h3.83c-2.04-4.37-4.08-8.75-6.12-13.12-.3-.64-1.21-1.16-1.91-1.1-4.81.42-9.62.84-14.42,1.26l1.91,3.34c7.56-13.1,15.12-26.19,22.69-39.29.57-.98,1.13-1.97,1.7-2.95,1.43-2.48-2.4-4.71-3.83-2.24-5.5,9.52-11,19.05-16.5,28.57-2.63,4.56-5.26,9.11-7.89,13.67-.78,1.36.19,3.49,1.91,3.34,4.81-.42,9.62-.84,14.42-1.26l-1.91-1.1c2.04,4.37,4.08,8.75,6.12,13.12.72,1.54,3.05,1.34,3.83,0l22.69-39.29c.57-.98,1.13-1.97,1.7-2.95,1.43-2.48-2.4-4.71-3.83-2.24h0Z"/>
    <path class="cls-2" d="M45.68,2.22C20.01,2.22,2.27,22.04,2.27,45.23c0,25.95,18.13,43.82,43.42,43.82s43.42-18.04,43.42-43.82c0-23.35-17.84-43.01-43.42-43.01Z"/>
    <path class="cls-1" d="M45.68,0c-9.9.03-19.78,2.94-27.73,8.94-7.53,5.68-13.08,13.59-15.86,22.6-5.52,17.86.01,39.01,15.02,50.54,14.69,11.29,37.03,12.26,52.99,3.04,7.49-4.33,13.48-11.05,16.97-18.96,3.88-8.8,5.1-18.76,3.67-28.25-1.39-9.22-5.74-17.97-12.29-24.62-6.66-6.77-15.53-11.22-24.91-12.67C50.94.23,48.32,0,45.68,0c-2.85-.01-2.86,4.42,0,4.43,9.07.03,17.9,2.69,25.22,8.11,6.69,4.96,11.64,12.19,14.1,20.12,4.9,15.85.52,34.9-12.52,45.5-6.3,5.12-14.48,7.9-22.6,8.52-8.64.66-17.5-.73-25.15-4.91-7.11-3.88-12.69-9.89-16.16-17.21-3.67-7.74-4.91-16.97-3.65-25.43,1.25-8.39,5-16.32,10.91-22.43,6.12-6.33,14.18-10.34,22.85-11.74,2.32-.38,4.68-.52,7.02-.52,2.85-.01,2.86-4.44,0-4.43Z"/>
    <path class="cls-1" d="M45.68,11.43c-7.38.03-14.76,2.18-20.69,6.64-5.65,4.25-9.82,10.13-11.94,16.88-4.22,13.41-.05,29.34,11.23,38.01,11,8.46,27.7,9.2,39.67,2.3,12.28-7.08,17.54-21.77,15.51-35.4-2.12-14.29-13.63-25.79-27.9-27.96-1.95-.3-3.9-.46-5.87-.47-2.85-.01-2.86,4.42,0,4.43,6.58.03,13.01,1.95,18.31,5.92,4.82,3.61,8.38,8.84,10.13,14.59,3.49,11.45.31,25.12-9.05,32.77-9.27,7.57-24.17,8.32-34.6,2.59-10.82-5.94-16.08-18.74-14.26-30.81.92-6.09,3.65-11.84,7.95-16.27,4.43-4.55,10.24-7.41,16.49-8.42,1.66-.27,3.35-.36,5.03-.37,2.85-.01,2.86-4.45,0-4.43h0Z"/>
  </g>
</svg>