<svg id="b" xmlns="http://www.w3.org/2000/svg" width="207.117" height="224.566" viewBox="0 0 207.117 224.566"><defs><style>.g{fill:#fcdc4a;}.g,.h,.i{stroke-width:0px;}.h{fill:#fff;}.i{fill:#211715;}</style></defs><g id="c"><g id="d"><path class="h" d="m52.669,84.386c-1.626-1.574-3.822-2.172-5.703-2.113-4.094.128-5.845,2.336-6.6,3.633-2.253,3.872-2.186,11.023-.701,15.453,1.051,3.137,2.775,7.937,6.963,11.391,1.856,1.531,4.659,2.506,7.258,1.847,1.878,6.472,5.293,14.286,11.316,21.553,4.663,5.625,9.566,9.818,15.035,12.45-.023,2.07.026,3.037-.182,5.888-.101,1.381-.208,2.874-.72,4.222-.686,1.772-1.61,3.307-3.095,4.505-3.145,2.533-6.377,3.744-10.357,5.241,0,0-2.578.974-4.137,1.588.805.598,1.22.834,1.96,1.27,10.666,6.291,26.758,9.81,40.502,10.123,13.728-.309,29.734-3.818,40.411-10.08.62-.363,1.096-.584,1.818-1.026-1.273-.521-4.857-1.875-4.857-1.875-3.981-1.497-7.213-2.708-10.357-5.241-1.485-1.198-2.408-2.733-3.095-4.505-.512-1.348-.619-2.84-.72-4.222-.224-3.072-.15-3.957-.191-6.398,11.705-6.486,20.943-22.281,22.642-26.837.588-1.213,1.552-3.711,2.334-6.262l.644.111c2.434.421,4.985-.502,6.722-1.912,4.214-3.421,5.975-8.207,7.051-11.336,1.519-4.419,1.642-11.569-.581-15.458-.745-1.303-2.478-3.524-6.571-3.684-1.873-.073-4.063.502-5.694,2.055-8.509-2.581-18.087-11.55-23.728-22.2-2.278-4.301-4.896-13.124-6.741-20.216-8.521,11.527-19.947,20.068-33.7,24.539-.81.263-2.005.427-2.822.13-1.058-.501-1.355-.984-1.265-2.378.225-3.468,1.614-9.2,2.011-12.553-9.376,9.209-19.625,18.93-29.134,26.71l-5.715,5.587Z"></path><path class="h" d="m2.388,222.166c10.334-18.955,22.503-33.022,39.717-43.191,5.757-3.401,12.638-6.366,19.658-8.921.792.588,1.206.824,1.943,1.259,10.666,6.291,26.758,9.81,40.502,10.123,13.728-.309,29.734-3.818,40.411-10.08.629-.369,1.11-.59,1.834-1.038,6.709,2.501,13.269,5.377,18.791,8.657,17.114,10.169,29.213,24.236,39.488,43.191H2.388Z"></path><g id="e"><path class="g" d="m52.722,173.648c2.931-1.275,5.965-2.475,9.032-3.591-.004-.004-.005-.011-.009-.014,1.56-.614,4.137-1.588,4.137-1.588,3.981-1.497,7.213-2.708,10.357-5.241,1.485-1.198,2.408-2.733,3.095-4.505.512-1.348.619-2.84.72-4.222.208-2.851.159-3.818.182-5.888-5.469-2.632-10.372-6.825-15.035-12.45-6.023-7.266-9.438-15.081-11.316-21.553-2.598.659-5.402-.316-7.258-1.847-4.187-3.453-5.911-8.253-6.963-11.391-1.485-4.43-1.551-11.581.701-15.453.755-1.297,2.505-3.505,6.599-3.633,1.881-.059,4.077.539,5.703,2.113l5.715-5.587c9.51-7.781,19.759-17.501,29.134-26.71-.397,3.353-1.785,9.084-2.011,12.553-.091,1.394.206,1.877,1.265,2.378.817.297,2.013.133,2.822-.13,13.752-4.472,25.179-13.013,33.7-24.539,1.845,7.091,4.463,15.915,6.741,20.215,5.641,10.65,15.219,19.619,23.728,22.2,1.631-1.553,3.821-2.128,5.694-2.055,4.093.16,5.826,2.381,6.571,3.684,2.223,3.889,2.1,11.04.581,15.458-1.076,3.129-2.837,7.916-7.051,11.336-1.736,1.41-4.288,2.333-6.722,1.912,0,0-.234-.04-.644-.111-.782,2.551-1.746,5.049-2.334,6.262-1.699,4.557-10.937,20.352-22.642,26.838.041,2.441-.033,3.326.191,6.398.101,1.381.208,2.874.72,4.222.686,1.772,1.61,3.307,3.095,4.505,3.145,2.533,6.377,3.744,10.357,5.241,0,0,3.58,1.353,4.854,1.874.007-.004.012-.007.019-.011,3.111,1.16,6.186,2.404,9.144,3.728,9.446,1.26,19.186-4.823,22.153-14.037,2.755-8.556-.669-19.645-3.221-28.263-4.397-14.852-6.162-29.936-6.369-45.4.292-8.927-.33-19.51-.648-23.942-1.101-15.361-8.017-32.515-17.968-42.049-3.962-3.797-5.336-5.728-9.186-7.982,0,0-2.229-1.305-4.458-2.609-2.214-.898-4.428-1.795-4.428-1.795-8.231-3.337-16.805-5.551-28.982-5.551-19.966,0-37.737,10.286-45.623,17.836-13.082,12.525-21.38,35.402-20.333,66.948,0,21.381-1.752,36.799-4.207,45.567-1.669,5.998-3.096,15.987-3.156,22.082-.07,8.514,9.072,20.204,23.552,18.798Z" style="fill: rgb(255, 233, 204);"></path></g></g><g id="f"><path class="i" d="m34.136,87.196c-.005,8.644-.261,17.299-1.032,25.911-.519,5.797-1.227,11.542-2.619,17.215-1.72,7.013-3.095,14.023-3.575,21.249-.191,2.869-.202,5.675.687,8.442.917,2.855,2.44,5.434,4.36,7.726,5.058,6.036,12.948,9.004,20.729,8.317,1.291-.114,2.4-1.021,2.4-2.4,0-1.21-1.101-2.515-2.4-2.4-6.237.551-12.25-1.421-16.559-6.035-1.661-1.778-3.096-4.095-3.82-6.239-.189-.559-.35-1.129-.478-1.705-.177-.798-.17-.757-.217-1.39-.106-1.43.004-2.888.099-4.316.45-6.761,1.754-13.302,3.376-19.862,1.362-5.508,2.094-11.182,2.65-16.821.908-9.198,1.194-18.453,1.2-27.693.002-3.089-4.798-3.094-4.8,0h0Z"></path><path class="i" d="m165.766,86.346c.211,15.053,1.916,30.152,6.046,44.659,3.077,10.808,8.737,25.275-.231,34.813-4.112,4.373-10.005,6.559-15.965,5.827-1.289-.158-2.4,1.216-2.4,2.4,0,1.429,1.108,2.241,2.4,2.4,6.114.751,12.271-1.303,17.043-5.11,4.946-3.946,7.822-9.667,8.397-15.926.645-7.027-1.258-14.177-3.201-20.865-2.104-7.246-3.991-14.478-5.183-21.939-1.387-8.681-1.983-17.474-2.106-26.259-.043-3.086-4.843-3.095-4.8,0h0Z"></path><path class="i" d="m139.148,14.446c2.037,1.21,3.74,2.682,5.413,4.351,1.882,1.877,3.85,3.688,5.611,5.681,3.453,3.906,6.164,8.461,8.375,13.168,2.329,4.958,4.047,10.216,5.213,15.566,1,4.587,1.39,9.204,1.647,13.881.353,6.409.552,12.838.353,19.255-.096,3.09,4.704,3.087,4.8,0,.185-5.955.021-11.92-.28-17.868-.254-5.019-.6-10.018-1.565-14.959-2.178-11.15-6.767-22.206-13.977-31.052-1.954-2.397-4.217-4.488-6.396-6.674-2.075-2.082-4.237-3.983-6.774-5.491-2.662-1.582-5.079,2.566-2.423,4.145h0Z"></path><path class="i" d="m132.111,5.654C121.88,1.527,110.882-.423,99.842.077c-11.23.509-22.264,3.971-32.06,9.424-7.356,4.095-13.769,9.342-18.746,16.156-5.182,7.095-8.676,15.385-10.991,23.824-3.356,12.234-4.312,25.078-3.91,37.72.098,3.081,4.898,3.095,4.8,0-.611-19.217,1.765-40.01,12.447-56.505,4.026-6.217,9.345-11.243,15.678-15.196,8.683-5.42,18.662-9.202,28.867-10.32,11.886-1.303,23.863.647,34.908,5.103,1.203.485,2.637-.528,2.952-1.676.377-1.371-.469-2.465-1.676-2.952h0Z"></path><path class="i" d="m150.846,110.646c-.765,3.661-2.125,7.15-3.481,10.42.291-.701.039-.092-.04.077-.103.22-.203.441-.309.661-.245.509-.502,1.013-.767,1.512-.638,1.201-1.32,2.378-2.033,3.536-3.688,5.996-8.177,11.632-13.652,16.093-2.999,2.444-6.417,4.386-10.177,5.236-3.012.682-1.737,5.31,1.276,4.629,7.698-1.742,14.111-7.373,19.139-13.198,4.15-4.808,8.046-10.23,10.668-16.046.164-.364.321-.732.473-1.101.066-.16.351-.807.075-.187.426-.96.836-1.928,1.208-2.911.918-2.422,1.719-4.908,2.249-7.445.63-3.014-3.996-4.303-4.629-1.276h0Z"></path><path class="i" d="m50.581,111.352c1.658,7.461,4.664,14.693,8.884,21.07,4.543,6.863,10.524,13.294,17.776,17.326,3.666,2.038,7.667,3.425,11.814,4.053,1.28.194,2.58-.322,2.952-1.676.312-1.134-.387-2.757-1.676-2.952-14.952-2.263-26.139-15.262-31.789-28.572-1.439-3.39-2.534-6.931-3.333-10.524-.67-3.014-5.299-1.739-4.629,1.276h0Z"></path><path class="i" d="m54.366,82.689c-3.254-2.977-8.032-3.622-12.02-1.755-2.961,1.386-4.688,4.256-5.462,7.336-1.812,7.208-.027,15.427,4.032,21.592,2.734,4.152,7.095,7.969,12.419,7.253,1.284-.173,2.4-.98,2.4-2.4,0-1.163-1.106-2.574-2.4-2.4-6.277.843-9.688-6.552-11.314-11.471-.929-2.809-1.176-5.789-.935-8.731.115-1.401.38-2.864.929-4.165.166-.393.39-.752.602-1.121.081-.141.327-.462.083-.153.163-.207.343-.403.53-.588,1.84-1.821,5.618-1.946,7.742-.002,2.275,2.082,5.679-1.303,3.394-3.394h0Z"></path><path class="i" d="m155.435,86.476c1.924-1.733,5.133-1.84,7.238-.357.609.429.867.761,1.283,1.488.662,1.155.982,2.515,1.18,3.823.825,5.458-.696,11.206-3.58,15.858-1.655,2.669-4.559,6.001-8.082,5.5-1.282-.182-2.578.314-2.952,1.676-.309,1.125.385,2.769,1.676,2.952,9.072,1.291,14.345-7.653,16.775-15.074,1.233-3.764,1.417-7.931.845-11.831-.483-3.299-1.795-6.505-4.609-8.459-3.977-2.763-9.652-2.138-13.169,1.03-2.3,2.072,1.103,5.458,3.394,3.394h0Z"></path><path class="i" d="m102.561,103.769c.432,1.649.847,3.323,1.095,5.011l-.086-.638c.029.231.042.459.019.692l.086-.638c-.016.108-.04.208-.076.311l.242-.573c-.032.073-.066.134-.11.2l.375-.486c-.052.063-.1.111-.164.161l.486-.375c-.127.081-.26.147-.397.21l.573-.242c-.218.091-.435.158-.669.195l.638-.086c-.211.025-.417.023-.628-.001l.638.086c-.237-.033-.469-.091-.706-.122-.67-.09-1.239-.115-1.849.242-.498.291-.973.862-1.103,1.434-.14.614-.11,1.304.242,1.849.312.484.835,1.022,1.434,1.103.524.071,1.032.204,1.565.228.809.035,1.564-.211,2.287-.541.89-.407,1.584-1.197,1.82-2.156.2-.811.113-1.53-.024-2.342-.273-1.614-.646-3.214-1.061-4.798-.318-1.214-1.729-2.072-2.952-1.676-1.25.404-2.018,1.651-1.676,2.952h0Z"></path><path class="i" d="m75.901,89.623c-.837,2.719-.291,8.975,4.86,9.508,6.809-.041,7.172-7.604,4.879-11.16-1.877-2.912-7.395-4.122-9.74,1.653Z"></path><path class="i" d="m130.43,89.623c.837,2.719.292,8.975-4.86,9.507-6.809-.041-7.172-7.604-4.88-11.16,1.877-2.911,7.395-4.122,9.74,1.653Z"></path><path class="i" d="m77.351,126.3c-.216-.003-.43-.018-.646-.028-.686-.032.249.094-.142-.017-.342-.097-.692-.167-1.034-.269-.349-.104-.267-.128.018.022-.174-.092-.355-.169-.526-.267-.168-.096-.324-.226-.494-.315-.37-.194.302.363.026.013-.208-.263-.492-.491-.715-.748.461.531.029.008-.059-.137-.109-.179-.191-.372-.297-.551-.233-.393.115.462-.008-.025-.055-.217-.144-.428-.201-.646-.045-.171-.078-.343-.116-.515-.15-.662-.041.136-.04-.279,0-.471-.046-.934-.024-1.407.013-.29.037-.58.07-.868-.059.51.043-.241.049-.276.235-1.314.631-2.603,1.124-3.843,1.285-3.231,3.304-6.256,5.376-9.056h-4.145c2.106,2.881,4.158,5.976,5.41,9.334.456,1.223.822,2.486,1.021,3.777-.074-.483.016.154.024.258.02.283.041.565.046.849.005.268,0,.535-.015.803-.004.07-.087.809-.032.436s-.069.326-.085.392c-.051.224-.111.445-.182.663-.023.07-.279.694-.113.329s-.124.225-.158.286c-.1.18-.228.345-.326.525-.18.329.365-.333-.092.105-.176.169-.98.822-.387.421-.287.194-.583.364-.876.547-.544.339.258-.035-.109.063-.194.052-.382.137-.576.193-.35.101-.704.167-1.063.228.74-.125.007-.017-.157-.008-.181.01-.362.013-.544.013-3.089-.009-3.093,4.791,0,4.8,3.294.01,6.56-1.463,8.235-4.396,2.113-3.699,1.307-8.354-.196-12.112-1.427-3.569-3.417-6.829-5.68-9.927-1.125-1.539-3.018-1.523-4.145,0-3.41,4.608-6.611,9.89-7.216,15.709-.369,3.547.786,7.175,3.815,9.239,1.51,1.028,3.381,1.459,5.187,1.487,3.09.047,3.091-4.753,0-4.8Z"></path><path class="i" d="m96.23,128.183c.238-.241.481-.477.744-.691-.376.306-.008.016.085-.037.149-.084.296-.171.446-.253.379-.207-.138.024.128-.043.188-.048.375-.104.563-.152.224-.057.475-.037.99-.07l.315.005c-.152-.037-.148-.036.011.001.07.015.573.182.22.037.351.144.674.364,1.007.544.913.492,1.9.867,2.953.864,1.073-.003,2.068-.356,2.999-.864.328-.179.641-.394.984-.544-.255.112.365-.041.366-.041.25-.008.498.007.748.015.808.025-.129-.049.278.029.195.037.384.103.577.141.612.12-.15-.104.14.033.156.074.308.155.456.244.052.031.509.346.254.157s.176.156.221.198c.151.137.296.282.44.428,2.176,2.199,5.57-1.195,3.394-3.394-1.529-1.545-3.315-2.413-5.484-2.613-1.3-.12-2.527.053-3.708.612-.375.177-.725.393-1.088.591-.069.038-.57.394-.245.135-.252.053-.3.075-.146.064.165-.004.103-.001-.186.009.368.006-.164-.034-.289-.074.32.101.006-.001-.142-.082-.368-.201-.728-.416-1.107-.597-1.224-.586-2.484-.779-3.835-.659-2.169.193-3.957,1.07-5.484,2.613-2.175,2.198,1.217,5.594,3.394,3.394h0Z"></path><path class="i" d="m123.504,79.187c1.673,2.481,4.317,3.746,7.241,4.042,2.683.271,5.725-.622,7.523-2.705.82-.949,1.003-2.474,0-3.394-.9-.826-2.518-1.015-3.394,0-.163.189-.332.367-.519.533-.05.044-.336.296-.077.07.253-.22-.03.007-.094.047-.135.086-.583.228-.65.357.038-.073.455-.169.115-.048-.105.037-.209.076-.315.11-.239.077-.483.14-.729.192-.11.023-.221.039-.331.062-.321.068.465-.033.137-.02-.506.02-.996.053-1.502.012-.076-.006-.455-.056-.088-.001.369.054-.013-.006-.087-.019-.243-.044-.484-.097-.722-.162-.212-.058-.418-.13-.626-.199-.3-.099.006-.018.117.06-.102-.071-.255-.117-.368-.174-.193-.098-.382-.204-.565-.32-.049-.031-.326-.162-.335-.225.007.048.379.323.105.078-.16-.143-.319-.286-.467-.442-.032-.034-.344-.431-.127-.124.224.317-.08-.123-.098-.15-.701-1.039-2.146-1.595-3.284-.861-1.035.667-1.612,2.171-.861,3.284h0Z"></path><path class="i" d="m62.368,172.363c4.824-1.893,10.049-3.36,14.272-6.453,2.676-1.96,4.721-4.637,5.4-7.949.568-2.768.576-5.684.591-8.502.016-3.089-4.784-3.093-4.8,0-.012,2.327.03,4.754-.386,7.048-.463,2.546-1.931,4.423-4.045,5.829-3.74,2.487-8.158,3.77-12.308,5.398-1.206.473-2.046,1.608-1.676,2.952.316,1.149,1.739,2.152,2.952,1.676h0Z"></path><path class="i" d="m146.369,167.734c-4.149-1.628-8.573-2.907-12.308-5.398-2.073-1.383-3.487-3.174-4.012-5.651-.492-2.325-.407-4.855-.419-7.225-.016-3.088-4.816-3.094-4.8,0,.015,2.819.028,5.73.591,8.502.672,3.31,2.729,5.992,5.4,7.949,4.223,3.094,9.448,4.56,14.272,6.453,1.207.474,2.635-.52,2.952-1.676.374-1.361-.465-2.477-1.676-2.952h0Z"></path><path class="i" d="m121.137,43.602c1.84,6.964,3.653,14.364,7.125,20.73,3.708,6.797,8.858,12.874,15.037,17.544,2.962,2.238,6.243,4.082,9.796,5.195,2.955.926,4.219-3.707,1.276-4.629-5.958-1.867-11.019-6.21-15.111-10.791-4.498-5.036-7.732-10.73-9.888-17.104-1.361-4.024-2.521-8.116-3.606-12.222-.788-2.984-5.42-1.718-4.629,1.276h0Z"></path><path class="i" d="m121.176,41.201c-4.531,6.083-10.082,11.469-16.396,15.681-3.249,2.168-6.689,4.046-10.269,5.608-1.688.737-3.422,1.387-5.173,1.959-.365.119-.764.277-1.151.314-.033.003-.58-.03-.59-.025-.266.15-.018-.226.002-.002-.09-.997.361.563.3.579.014-.004.041-1.105.057-1.274.372-4.019,1.466-7.948,1.963-11.954.269-2.167-2.744-3.026-4.097-1.697-9.399,9.228-18.943,18.355-29.134,26.71-1.003.822-.853,2.541,0,3.394.992.992,2.389.824,3.394,0,10.192-8.356,19.736-17.483,29.134-26.71l-4.097-1.697c-.478,3.855-1.592,7.952-1.963,11.954-.193,2.08.321,3.941,2.271,4.98,2.203,1.175,4.726.247,6.886-.533,8.439-3.049,16.195-7.678,22.885-13.658,3.769-3.369,7.107-7.158,10.124-11.209.775-1.04.17-2.681-.861-3.284-1.224-.716-2.507-.182-3.284.861h0Z"></path><path class="i" d="m4.46,223.377c4.819-8.813,10.371-17.251,17.157-24.683,6.515-7.136,14.06-13.26,22.44-18.079,5.815-3.344,12.026-5.941,18.312-8.253,1.216-.447,2.04-1.628,1.676-2.952-.322-1.171-1.73-2.126-2.952-1.676-10.845,3.989-21.125,8.943-30.305,16.021-8.029,6.191-14.934,13.599-20.863,21.81-3.544,4.908-6.706,10.079-9.609,15.389-1.483,2.712,2.661,5.137,4.145,2.423h0Z"></path><path class="i" d="m206.803,220.955c-5.04-9.272-10.924-18.129-18.058-25.932-6.763-7.395-14.693-13.794-23.399-18.766-6.025-3.441-12.48-6.119-18.977-8.523-1.216-.45-2.63.503-2.952,1.676-.369,1.341.456,2.501,1.676,2.952,10.179,3.766,19.893,8.488,28.501,15.162,7.576,5.875,14.179,12.981,19.737,20.779,3.433,4.816,6.504,9.879,9.328,15.073,1.476,2.715,5.622.295,4.145-2.423h0Z"></path><path class="i" d="m145.001,168.391c-9.63,5.58-20.406,8.668-31.433,9.975-5.584.662-11.07.771-16.667.221-5.774-.567-11.513-1.652-17.094-3.238-5.69-1.617-11.576-3.718-16.477-7.109-1.066-.738-2.665-.197-3.284.861-.697,1.192-.208,2.544.861,3.284,4.606,3.187,10.137,5.286,15.45,6.945,5.882,1.836,11.944,3.033,18.056,3.782,5.862.719,11.623.838,17.5.237,6.045-.618,12.056-1.696,17.904-3.355,6.185-1.754,12.046-4.237,17.606-7.458,2.672-1.548.258-5.698-2.423-4.145h0Z"></path></g></g></svg>