<?xml version="1.0" encoding="UTF-8"?>
<svg id="_レイヤー_1" data-name="レイヤー 1" xmlns="http://www.w3.org/2000/svg" viewBox="0 0 120 120">
  <defs>
    <style>
      .cls-1 {
        fill: #211715;
      }

      .cls-2 {
        fill: #fff;
      }

      .cls-3 {
        fill: #fcdc4a;
      }
    </style>
  </defs>
  <path class="cls-2" d="M91.47,36.52c-8.39-8.57-20.3-13.95-34.34-13.95-7.54-.07-15.02,1.62-21.96,4.99-2.03,1.09-2.69.84-3.19.68l-1.7-.54c-2.54-.88-5.14-1.56-7.76-2.03-2.26-.41-4.55-.61-6.84-.6-1.16.04-2.08,1.14-2.04,2.47,0,.26.05.52.13.77,1.07,3.38,4.48,12.15,4.48,12.15.42.87.32,1.95-.25,2.7-2.79,3.69-6.57,9.55-7.33,10.86l-1.1,1.89c-.31.52-.78.89-1.32,1.02-.94.23-1.82.46-2.81.72-.54.1-1.06.33-1.51.7-.48.44-.79,1.08-.87,1.78-.74,9.55-1.48,19.26.4,28.64.04.33.16.63.35.88.23.21.51.35.8.4,2.11.59,4.25,1.01,6.41,1.24.71.08,2.19.17,2.83,1.51l.06.13c6.91,15.83,22.49,24.43,43.22,24.43,33.25,0,47.58-18.32,47.58-47.84-.05-12.66-4.88-24.68-13.24-33.01Z"/>
  <path class="cls-3" d="M44.11,13.59c-2.38,4.07-3.64,8.86-3.64,13.76,0,2.68.38,5.34,1.15,7.88,10.98-2.83,27.57-1.76,39.49,4.5,6-11.88,2.42-27.07-8-33.91-9.95-6.54-22.65-3.13-29,7.78h0Z"/>
  <path class="cls-1" d="M106.7,62.19c.06-.07.74-.68.44-.43.22-.18.46-.35.7-.51.1-.07.84-.41.31-.2.22-.09.44-.18.67-.24.11-.03.22-.06.33-.08.26-.05.22-.05-.11,0,.23-.06.48-.08.71-.04.15,0,.29.01.44.03-.26-.04-.26-.04,0,.01.11.03.23.06.34.1.25.1.2.06-.16-.11.17.14.35.26.54.34.2.16.19.14-.04-.05.09.09.18.18.27.28.09.1.17.2.25.31-.17-.25-.19-.25-.05-.01-.1-.31-.11-.33-.02-.06.06.29.06.25.01-.11,0,.13,0,.25,0,.38.05-.38.05-.42,0-.14-.08.27-.07.24.05-.11-.13.24-.11.21.07-.07-.18.19-.15.18.08-.03-.23.14-.19.15.09,0-.42.14.49.05-.09.02-.18-.01-.11,0,.21.03-.24-.09-.21-.06.09.07-.1-.05-.19-.12-.28-.19.25.23.28.24.1.05.19.29.22.32.09.08.11.28.12.26.03-.05.02.29.02.28,0-.02.01-.31,0-.31-.02,0,.03-.15.07-.3.11-.44-.09.25-.09.23.04-.05.06-.13.13-.26.21-.39-.15.22-.14.22.03,0,.06-.06.67-.69.3-.36.22-.19.44-.36.67-.52.24-.18.86-.76,1.17-.74-.31.14-.35.17-.11.06.09-.04.2-.08.29-.11.2-.07.41-.13.62-.18.13-.03.84-.25.23-.07.24-.05.49-.07.74-.07.57-.03,1.14-.02,1.7,0,1.25-.01,2.26-1.16,2.27-2.59-.03-1.42-1.03-2.56-2.27-2.59-2.38-.23-4.77.39-6.84,1.76-1.27.8-2.31,1.99-3.03,3.42-.82,1.76-.83,3.87-.02,5.64,1.22,2.33,3.87,3.09,5.92,1.7.67-.46,1.22-1.12,1.59-1.91,1.42-3.36-.5-6.84-3.35-8.07-3.01-1.3-6.27.3-8.51,2.59-.88,1.02-.88,2.65,0,3.66.9.98,2.31.98,3.21,0h0Z"/>
  <path class="cls-1" d="M32.64,113.42c.11,1.01.53,1.95,1.18,2.65.33.46.71.89,1.11,1.27.97.95,2.11,1.66,3.34,2.07,2.23.66,4.59.56,6.77-.3,1.21-.38,1.92-1.81,1.59-3.19-.33-1.38-1.58-2.19-2.79-1.81-.37.15-.74.27-1.13.37l-.3.07s-.54.09-.15.04c.35-.05,0,0-.08,0-.1.01-.2.02-.31.03-.41.04-.82.04-1.23.02-.1,0-.2-.01-.3-.02-.07,0-.43-.06-.07,0s0,0-.07-.02c-.12-.02-.24-.05-.36-.08-.19-.05-.38-.11-.57-.17-.09-.03-.18-.07-.27-.11-.53-.23-1.12.08-1.32.68-.2.6.07,1.28.6,1.51.53.23,1.12-.08,1.32-.68.18-.54-.01-1.14-.45-1.43-.34-.26-.74-.45-1.08-.72-.29-.23.08,0,.07.07,0-.04-.21-.21-.24-.24-.18-.18-.35-.37-.51-.57-.14-.17-.27-.35-.41-.53-.2-.26.24.4.09.12-.06-.11-.14-.22-.2-.34l.31,1.31h0c0-1.44-1.02-2.6-2.28-2.6-1.25,0-2.26,1.16-2.27,2.58h0Z"/>
  <path class="cls-1" d="M74.2,118.42c2.7,1.24,5.71,1.27,8.42.09,2.53-1.2,4.46-3.62,5.27-6.61.32-1.38-.38-2.8-1.59-3.19-1.21-.35-2.44.45-2.79,1.81-.04.16-.09.32-.14.47-.08.34.17-.39.03-.08-.11.25-.22.5-.35.74-.07.13-.15.25-.22.38-.16.29.27-.35.07-.1-.15.2-.3.4-.47.59s-.34.35-.51.52c-.21.22.39-.31.04-.04-.08.06-.16.13-.25.19-.2.15-.41.29-.63.43-.09.05-.17.1-.26.15-.35.22.37-.13.09-.04-.44.14-.88.28-1.32.4-.31.08.43-.04.11-.01-.14.01-.28.03-.43.04-.27.02-.53.02-.8.02s-.55-.03-.83-.06-.15.02.04.01c-.16-.01-.32-.04-.47-.1-.62-.15-1.23-.35-1.82-.61-1.21-.37-2.46.43-2.79,1.81-.3,1.37.4,2.77,1.59,3.19h0Z"/>
  <path class="cls-1" d="M27.85,53.29c-2.38,0-4.02,2.42-4.02,5.26,0,3.28,1.56,5.35,4.02,5.35,2.52,0,4.02-2.07,4.02-5.36,0-2.85-1.65-5.25-4.02-5.25Z"/>
  <path class="cls-1" d="M82.71,32.52c11.86,7.81,19.8,21.68,19.72,37.5.05,5.43-.59,10.84-1.91,16.06-.32,1.21-.67,2.41-1.07,3.59-.35,1.03-.74,2.04-1.18,3.02-.49,1.12-1.04,2.22-1.63,3.29-.27.49-.55.98-.84,1.45-.13.22-.27.43-.41.65-.07.11-.14.22-.21.32-.45.69.12-.17-.14.22-5.81,8.47-14.43,12.81-23.65,14.79-6.16,1.26-12.43,1.67-18.68,1.22-6.22-.31-12.36-1.74-18.18-4.25-4.9-2.12-9.34-5.42-13.03-9.66-1.78-2.08-3.32-4.4-4.59-6.91-.74-1.45-1.25-3.08-2.53-4.05-1.32-1-2.92-1-4.44-1.2-.88-.12-1.75-.28-2.61-.48-.81-.09-1.61-.31-2.37-.67l.81.93c-.29-.81-.47-1.66-.52-2.53-.16-1.03-.29-2.07-.39-3.12-.21-2.3-.31-4.6-.31-6.91-.02-4.55.28-9.09.63-13.62,0-.61.05-1.21.17-1.81.44-.44,1.76-.5,2.32-.65.86-.15,1.7-.47,2.47-.93.8-.65,1.45-1.5,1.92-2.48,1.1-1.89,2.28-3.71,3.48-5.52.91-1.37,1.84-2.72,2.79-4.06,1.1-1.54,2.42-2.95,2.45-5.08.02-1.85-1.18-4.1-1.82-5.78-.92-2.42-1.8-4.73-2.64-7.18-.12-.37-.25-.74-.4-1.09,0,0-.02-.06,0-.03s-.2.07-.23.1c.09-.11.74,0,.88,0,1.87.04,3.73.23,5.57.55,3.15.51,6.15,1.67,9.23,2.52,1.16.33,2.38.24,3.49-.24,2.1-.89,4.13-1.93,6.28-2.69,2.78-.99,1.59-5.99-1.21-5-1.48.52-2.94,1.11-4.37,1.77-.69.32-1.37.7-2.07.99-.18.07-.37.14-.56.19-.3.07-.32.08-.04.03-.08,0-.17,0-.25,0-.21.13.49.15.14.02-.08-.03-.16-.05-.24-.08-.27-.1-.54-.17-.81-.25-1-.31-1.99-.63-2.99-.94-3.02-.91-6.1-1.53-9.21-1.87-2.76-.31-6.23-.77-7.69,2.6-1.03,2.37.05,4.7.85,6.91.78,2.16,1.58,4.3,2.4,6.44.25.66,1.24,2.57,1.18,3.09.05-.46-.6.61-.71.76-.37.51-.73,1.02-1.1,1.54-.86,1.22-1.7,2.46-2.53,3.71-1.08,1.61-2.16,3.22-3.16,4.9-.3.51-.62,1.51-1.06,1.82-.53.21-1.08.35-1.64.41-.73.16-1.46.37-2.17.64-3.45,1.46-3.21,5.78-3.45,9.28C.19,68.34,0,71.94,0,75.54c0,3.73.26,7.46.79,11.15.23,1.58.36,3.6,1.41,4.8s2.95,1.4,4.34,1.69c1.48.31,2.98.53,4.48.7.67.08.78.04,1.2.95.94,2.04,2.03,3.99,3.27,5.82,11.89,17.66,33.74,21.11,51.95,18.64,8.05-1.09,16.17-3.54,22.96-8.78,5.9-4.57,10.47-11.03,13.14-18.57,2.91-8.4,4.03-17.47,3.28-26.46-1.06-12.2-6.21-23.46-14.37-31.43-2.31-2.27-4.8-4.28-7.44-6.01-2.54-1.67-4.83,2.81-2.29,4.47Z"/>
  <path class="cls-1" d="M43.24,32.31c-2.41-11.98,4.16-23.91,14.66-26.65,10.5-2.74,20.96,4.74,23.37,16.72.96,4.79.51,9.81-1.29,14.27-.6,1.24-.24,2.8.81,3.54,1.08.71,2.47.3,3.11-.93,5.58-13.19,1.09-29.05-10.2-36.03C63.05-3.2,49.9.23,42.76,11.28c-4.08,6.47-5.5,14.64-3.9,22.4.65,3.25,5.03,1.87,4.38-1.38h0Z"/>
  <path class="cls-1" d="M69.49,17.57l.13.06-.54-.26c.57.28,1.1.64,1.59,1.07l-.46-.4c.56.5,1.05,1.07,1.48,1.7l-.35-.52c.51.77.94,1.62,1.27,2.51l-.23-.62c.05.14.1.28.15.43.17.64.54,1.19,1.04,1.55.53.35,1.16.44,1.75.26.57-.18,1.06-.61,1.36-1.19.32-.6.4-1.32.23-2-.55-1.73-1.39-3.32-2.46-4.7-.52-.63-1.1-1.2-1.72-1.69-.63-.49-1.32-.89-2.03-1.19-.59-.19-1.22-.09-1.75.26-1.08.72-1.45,2.31-.81,3.54l.35.52c.28.32.62.55,1,.67h0Z"/>
  <path class="cls-1" d="M86.77,40.28c-5.79-3.97-12.19-6.61-18.87-7.78-6.55-1.35-13.22-1.69-19.84-1.01-3.64.33-7.24,1.14-10.72,2.41-2.76,1.05-1.57,6.06,1.21,5,5.68-1.99,11.62-2.85,17.55-2.54,6.38.11,12.72,1.26,18.81,3.42,3.37,1.19,6.58,2.86,9.57,4.99,2.48,1.79,4.76-2.69,2.29-4.47h0Z"/>
</svg>