<svg id="b" xmlns="http://www.w3.org/2000/svg" width="189.814" height="301.188" viewBox="0 0 189.814 301.188"><defs><style>.g{fill:#fff;}.h{fill:#fcdc4a;}.i{fill:#211715;}</style></defs><g id="c"><g id="d"><path class="g" d="M151.365,77.669c-.672-1.166-2.235-3.153-5.908-3.282-1.699-.06-3.687.476-5.145,1.916-7.627-2.33-16.204-10.369-21.259-19.912-2.045-3.86-4.394-11.78-6.049-18.142-7.647,10.344-17.901,18.009-30.242,22.022-.727.236-1.8.383-2.533.117-.95-.45-1.217-.883-1.135-2.134.202-3.113,1.448-8.256,1.804-11.265-3.137,3.081-6.383,6.226-9.662,9.321-7.598,7.169-15.377,14.068-22.404,19.277-1.329-.902-2.905-1.249-4.289-1.2-3.672.129-5.235,2.116-5.908,3.282-2.007,3.481-1.923,9.896-.575,13.865.954,2.811,2.517,7.111,6.286,10.194,1.67,1.367,4.188,2.232,6.516,1.63,1.707,5.8,4.798,12.799,10.227,19.297,4.213,5.042,8.638,8.791,13.567,11.132l-.051.937c-.151,1.757-.25,3.172-.485,5.223-.364,3.167-.759,5.525-4.872,7.531-.153.056-4.267,1.973-8.142,3.765.232.175.377.286.377.286,10.525,8.109,21.963,11.254,33.936,11.254,11.73,0,23.411-3.145,33.936-11.254,0,0,.017-.017.05-.048-4.017-1.855-8.495-3.944-8.656-4.002-4.113-2.006-4.508-4.365-4.872-7.531-.236-2.052-.334-3.466-.486-5.223v-.003s-.053-.837-.053-.837c11.148-5.302,20.064-20.613,21.64-24.89.523-1.09,1.379-3.334,2.072-5.625.369.062.578.097.578.097,2.185.369,4.47-.468,6.023-1.739,3.768-3.083,5.332-7.383,6.286-10.194,1.347-3.969,1.432-10.384-.575-13.865Z"></path><path class="g" d="M3.397,240.619c1.332-11.473,2.572-21.687,3.639-29.096,1.24-8.612,4.356-23.738,10.066-33.269,7.325-10.998,17.62-16.675,30.704-22.239l13.438-4.684c10.588,8.257,22.111,11.452,34.178,11.452,11.694,0,23.34-3.126,33.84-11.18,4.307,1.468,12.936,4.412,12.936,4.412,13.084,5.564,23.379,11.24,30.704,22.239,5.71,9.531,8.826,24.658,10.066,33.269.977,6.783,2.098,15.917,3.303,26.216,1.75,19.349,4.154,44.253-15.363,56.223-8.161,5.005-17.284,4.809-27.92,4.814-39.288,0-62.049,0-101.342,0-8.075-.075-16.074-.641-22.859-4.803C.328,282.654,1.64,259.756,3.3,240.94"></path><path class="g" d="M49.541,243.918c-2.988-2.842-4.657-6.509-5.317-10.678-.804-5.077-1.554-10.758-1.044-15.871.401-4.023,1.832-7.931,5.203-10.352.65-.467,1.932-1.371,2.629-1.841.233-1.43.824-2.783,2.55-4.011,2.214-1.575,4.652-1.179,6.611-.754.356-1.646.61-3.99,2.575-5.394,1.469-1.049,3.594-2.31,7.298-.458.854.493,1.62,1.005,2.341,1.553,2.655-3.774,5.965-7.086,9.732-9.75h2.312c-1.912,13.189-6.469,44.634-6.469,44.634-.385,2.653.804,5.171,2.859,6.61-5.29,10.41-19.308,15.056-29.369,7.885-.689-.491-1.324-1.016-1.91-1.572Z"></path><path class="g" d="M131.117,209.858c-2.25-3.646-4.905-7.043-7.906-10.101-1.354-1.38-2.845-2.732-4.691-3.307s-4.132-.157-5.214,1.445c-1.501,2.222-.055,5.183,1.381,7.448,2.668,4.208,5.336,8.415,8.004,12.623-5.196-2.448-10.391-4.896-15.587-7.344-2.283-1.076-4.732-2.179-7.231-1.825-2.499.354-4.442,2.645-3.665,5.046.456,1.409,1.258,2.175,2.346,2.862-.896-.381-1.445-.611-1.445-.611-2.634-1.107-4.949.589-5.407,2.344s.396,3.603,1.547,5.005c1.468,1.789,3.389,3.099,5.423,4.236-.692,1.256-1.448,2.626-1.448,2.626-1.671-.426-3.081,1.541-3.047,3.265.034,1.76.97,3.405,2.209,4.655s2.771,2.162,4.285,3.06c4.363,2.589,8.726,5.178,13.089,7.768.186,4.791,1.437,10.387,5.494,13.241,3.555,2.501,8.612,2.202,12.311-.081,3.698-2.283,6.129-6.247,7.332-10.423,1.203-4.176,1.296-8.588,1.176-12.932-.165-5.98-.767-12.134-3.499-17.445-1.376-4.042-3.215-7.922-5.456-11.553Z"></path><g id="e"><path class="h" d="M47.411,156.186c.133-.057.261-.114.395-.171,0,0,8.775-3.059,13.424-4.679-.042-.032-.071-.054-.122-.093,3.876-1.792,7.989-3.709,8.142-3.765,4.113-2.006,4.508-4.365,4.872-7.531.236-2.052.334-3.466.485-5.223l.051-.937c-4.929-2.341-9.354-6.09-13.567-11.132-5.429-6.498-8.52-13.497-10.227-19.297-2.328.602-4.846-.263-6.516-1.63-3.768-3.083-5.332-7.383-6.286-10.194-1.347-3.969-1.432-10.384.575-13.865.672-1.166,2.235-3.153,5.907-3.282,1.384-.049,2.96.298,4.289,1.2,7.027-5.21,14.806-12.108,22.404-19.277,3.28-3.095,6.525-6.24,9.662-9.321-.356,3.009-1.602,8.152-1.804,11.265-.081,1.251.185,1.684,1.135,2.134.733.267,1.806.12,2.533-.117,12.341-4.013,22.596-11.678,30.243-22.022,1.655,6.361,4.005,14.281,6.049,18.142,5.055,9.543,13.631,17.582,21.258,19.912,1.458-1.44,3.445-1.976,5.145-1.916,3.672.129,5.235,2.116,5.908,3.282,2.007,3.481,1.922,9.896.575,13.865-.954,2.811-2.517,7.111-6.286,10.194-1.553,1.271-3.838,2.108-6.023,1.739,0,0-.209-.035-.578-.097-.693,2.291-1.549,4.535-2.072,5.625-1.576,4.277-10.491,19.588-21.64,24.89l.053.837v.003c.151,1.757.25,3.172.486,5.223.364,3.167.758,5.525,4.872,7.531.16.059,4.639,2.147,8.656,4.002-.033.031-.05.048-.05.048-.031.024-.062.051-.093.076,4.308,1.468,12.932,4.411,12.932,4.411.416.177.821.355,1.232.532,8.009.377,15.934-4.906,18.447-12.71,2.473-7.678-.6-17.63-2.89-25.364-3.946-13.328-5.529-26.865-5.716-40.742.263-8.011-.296-17.509-.581-21.486-.988-13.785-7.195-29.179-16.124-37.735-3.556-3.407-4.788-5.14-8.244-7.163,0,0-2-1.171-4.001-2.342-1.987-.806-3.974-1.611-3.974-1.611-7.387-2.995-15.081-4.982-26.009-4.982-17.918,0-33.866,9.231-40.943,16.006-11.74,11.24-19.187,31.77-18.247,60.08,0,19.187-1.573,33.024-3.776,40.892-1.498,5.383-2.778,14.347-2.833,19.817-.059,7.188,7.196,16.901,18.873,16.978Z" style="fill: rgb(212, 243, 255);"></path><path class="h" d="M96.385,238.225c-1.239-1.25-2.175-2.895-2.209-4.655-.034-1.724,1.376-3.691,3.047-3.265,0,0,.756-1.371,1.448-2.626-2.034-1.137-3.955-2.447-5.423-4.236-1.151-1.402-2.005-3.25-1.547-5.005.458-1.755,2.773-3.451,5.407-2.344,0,0,.549.231,1.445.611-1.088-.687-1.89-1.452-2.346-2.862-.777-2.401,1.167-4.692,3.665-5.046,2.499-.354,4.948.749,7.231,1.825,5.196,2.448,10.391,4.896,15.587,7.344-2.668-4.208-5.336-8.415-8.004-12.623-1.436-2.265-2.881-5.225-1.381-7.448,1.082-1.602,3.368-2.019,5.214-1.445,1.846.574,3.337,1.927,4.691,3.307,1.636,1.667,3.158,3.443,4.579,5.297l5.019-34.63c.6-4.14-2.28-7.995-6.42-8.595l-30.106-4.364c-4.14-.6-7.996,2.279-8.596,6.419l-9.624,66.395c-.6,4.139,2.28,7.995,6.42,8.595l16.043,2.325c-1.467-.871-2.942-1.764-4.143-2.975Z" style="fill: rgb(212, 243, 255);"></path></g></g><g id="f"><path class="i" d="M47.423,153.785c-5.285-.079-10.314-2.452-13.536-6.693-1.298-1.708-2.203-3.534-2.693-5.607-.233-.985-.279-1.511-.253-2.737.03-1.43.129-2.859.259-4.283.517-5.704,1.777-11.159,3.069-16.717,1.151-4.954,1.788-10.036,2.266-15.093.758-8.028,1.003-16.1,1.009-24.161.002-3.089-4.798-3.094-4.8,0-.005,7.576-.225,15.16-.878,22.71-.448,5.18-1.063,10.31-2.252,15.384-.595,2.537-1.302,5.033-1.783,7.598-.649,3.459-1.137,6.958-1.447,10.463-.236,2.668-.443,5.35.154,7.987.559,2.469,1.721,4.862,3.222,6.894,4.184,5.666,10.617,8.949,17.664,9.054,3.09.046,3.091-4.754,0-4.8h0Z"></path><path class="i" d="M150.873,77.735c.185,13.084,1.624,26.203,5.077,38.847,1.508,5.525,3.448,10.982,4.169,16.69.643,5.087.248,10.32-2.997,14.503s-8.388,6.574-13.649,6.399c-3.09-.103-3.086,4.697,0,4.8,5.541.184,10.976-1.953,15.052-5.684,4.221-3.863,6.426-9.193,6.643-14.863.235-6.148-1.433-12.285-3.144-18.132-1.89-6.457-3.512-12.935-4.551-19.589-1.185-7.596-1.691-15.289-1.8-22.972-.044-3.086-4.844-3.095-4.8,0h0Z"></path><path class="i" d="M51.365,74.565c-3.047-2.745-7.436-3.318-11.138-1.56-2.669,1.268-4.233,3.908-4.933,6.685-1.661,6.591.029,14.171,3.818,19.757,2.779,4.098,6.755,7.025,11.896,6.333,1.286-.173,1.986-1.823,1.676-2.952-.381-1.388-1.662-1.85-2.952-1.676-3.486.469-6.188-3.345-7.594-5.99-1.388-2.611-2.389-5.561-2.595-8.519-.185-2.654.01-6.354,1.479-8.266-.169.22.325-.348.381-.406.311-.32.234-.241.496-.409.549-.353,1.089-.555,1.734-.679,1.534-.294,3.159.014,4.338,1.076,2.29,2.063,5.695-1.321,3.394-3.394h0Z"></path><path class="i" d="M142.032,77.959c2.096-1.889,5.495-1.364,7.014.501-.343-.422.11.189.166.282.129.212.273.452.368.662.318.699.499,1.486.651,2.234.332,1.636.344,3.345.228,5.004-.203,2.904-1.172,5.791-2.514,8.364-1.402,2.689-4.13,6.622-7.675,6.145-1.283-.173-2.576.308-2.952,1.676-.307,1.118.383,2.778,1.676,2.952,8.343,1.123,13.197-7.006,15.358-13.903,1.082-3.453,1.205-7.267.633-10.822-.474-2.951-1.732-5.746-4.237-7.489-3.663-2.549-8.888-1.905-12.11.999-2.3,2.072,1.104,5.458,3.394,3.394h0Z"></path><path class="i" d="M137.595,99.403c-.68,3.304-1.885,6.462-3.106,9.408.289-.697.034-.08-.045.088-.094.199-.185.399-.28.598-.221.458-.452.911-.69,1.361-.566,1.069-1.172,2.116-1.803,3.148-3.257,5.322-7.219,10.354-12.066,14.318-2.673,2.185-5.688,3.921-9.023,4.692-3.008.696-1.735,5.325,1.276,4.629,6.89-1.594,12.628-6.616,17.13-11.846,3.74-4.344,7.227-9.233,9.602-14.476.236-.522.444-1.055.667-1.582-.284.672.251-.561.312-.705.201-.477.395-.957.579-1.441.854-2.247,1.592-4.557,2.077-6.914.261-1.268-.369-2.593-1.676-2.952-1.188-.326-2.69.401-2.952,1.676h0Z"></path><path class="i" d="M47.649,100.518c1.521,6.709,4.25,13.212,8.071,18.937,4.095,6.136,9.469,11.88,15.966,15.497,3.348,1.863,7.003,3.128,10.792,3.689,1.281.19,2.579-.319,2.952-1.676.311-1.131-.386-2.761-1.676-2.952-13.392-1.982-23.378-13.549-28.488-25.437-1.291-3.002-2.266-6.148-2.988-9.333-.683-3.011-5.312-1.737-4.629,1.276h0Z"></path><path class="i" d="M86.539,114.628c2.788,1.472,5.789,2.092,8.942,2.071,3.224-.021,6.461-.664,9.041-2.674.995-.775.875-2.591,0-3.394-1.055-.969-2.332-.827-3.394,0,.733-.571.183-.148-.006-.027-.178.114-.362.22-.55.319-.097.051-.197.097-.295.147-.295.152-.166-.071.114-.039-.182-.02-.578.218-.759.276-.692.223-1.405.376-2.123.485.361-.055-.014-.002-.179.014-.208.021-.417.038-.626.052-.502.032-1.006.045-1.509.042-.451-.003-.902-.018-1.351-.049-.207-.014-.413-.031-.619-.051-.043-.004-.789-.12-.275-.029-.67-.119-1.331-.245-1.984-.44-.278-.083-.549-.183-.823-.277-.606-.207.375.191-.172-.067-.34-.16-.676-.328-1.008-.503-1.11-.586-2.66-.318-3.284.861-.586,1.109-.324,2.658.861,3.284h0Z"></path><path class="i" d="M94.22,93.617c.388,1.479.76,2.981.983,4.495l-.086-.638c.026.208.038.412.017.62l.086-.638c-.015.097-.036.187-.068.279l.242-.573c-.029.065-.059.12-.098.179l.375-.486c-.046.056-.09.099-.147.145l.486-.375c-.114.073-.234.132-.356.188l.573-.242c-.196.082-.39.142-.6.175l.638-.086c-.189.022-.374.021-.563-.001l.638.086c-.212-.03-.421-.081-.633-.11-.319-.1-.638-.114-.957-.043-.319.014-.617.109-.892.285-.498.291-.973.862-1.103,1.434-.14.614-.11,1.304.242,1.849.312.484.835,1.022,1.434,1.103.492.066.969.191,1.47.213.772.034,1.488-.203,2.176-.519.853-.391,1.52-1.163,1.747-2.082.192-.778.11-1.452-.022-2.232-.245-1.448-.579-2.883-.952-4.304-.152-.579-.588-1.133-1.103-1.434s-1.273-.429-1.849-.242c-1.25.404-2.018,1.651-1.676,2.952h0Z"></path><path class="i" d="M70.543,80.861c-.751,2.44-.261,8.051,4.36,8.529,6.108-.037,6.433-6.821,4.377-10.011-1.684-2.612-6.634-3.698-8.737,1.483Z"></path><path class="i" d="M119.459,80.861c.751,2.44.262,8.051-4.36,8.529-6.108-.037-6.434-6.822-4.378-10.012,1.683-2.612,6.634-3.698,8.737,1.483Z"></path><path class="i" d="M110.832,39.438c1.663,6.291,3.303,12.966,6.446,18.713,3.325,6.078,7.933,11.519,13.454,15.706,2.707,2.053,5.699,3.741,8.95,4.762,2.954.928,4.218-3.704,1.276-4.629-6.931-2.178-12.739-8.018-16.794-13.841-4.594-6.597-6.672-14.3-8.704-21.988-.789-2.984-5.42-1.718-4.629,1.276h0Z"></path><path class="i" d="M110.892,37.094c-4.023,5.397-8.951,10.187-14.55,13.934-2.864,1.917-5.894,3.583-9.047,4.976-1.502.664-3.044,1.242-4.601,1.765-.406.136-.833.319-1.261.362-.097.01-.231-.033-.317-.005-.46.152.01-.113.061.055.027.09.357.747.314.733-.106-.036.037-1.087.054-1.266.342-3.582,1.309-7.087,1.755-10.658.27-2.167-2.744-3.025-4.097-1.697-8.435,8.281-17,16.471-26.146,23.97-1.003.822-.853,2.541,0,3.394.992.992,2.389.825,3.394,0,9.146-7.499,17.711-15.689,26.146-23.97l-4.097-1.697c-.426,3.418-1.461,7.203-1.769,10.813-.164,1.927.374,3.631,2.156,4.591,2.048,1.103,4.387.274,6.403-.455,7.572-2.739,14.533-6.884,20.545-12.243,3.429-3.056,6.459-6.498,9.202-10.178.775-1.04.17-2.681-.861-3.284-1.224-.716-2.507-.181-3.284.861h0Z"></path><path class="i" d="M127.108,13.42c1.81,1.077,3.321,2.383,4.808,3.866,1.685,1.68,3.447,3.303,5.025,5.087,3.067,3.467,5.473,7.511,7.444,11.686,2.131,4.515,3.69,9.314,4.739,14.192.881,4.098,1.212,8.224,1.439,12.4.309,5.685.482,11.388.306,17.081-.096,3.09,4.705,3.087,4.8,0,.165-5.348.019-10.704-.252-16.046-.23-4.538-.546-9.058-1.422-13.526-1.968-10.04-6.114-19.974-12.606-27.94-1.777-2.181-3.841-4.086-5.826-6.074-1.846-1.849-3.781-3.53-6.034-4.871-2.661-1.584-5.078,2.564-2.423,4.145h0Z"></path><path class="i" d="M120.983,5.081C111.828,1.39,102.003-.354,92.125.06c-10.225.428-20.285,3.587-29.192,8.571-6.57,3.677-12.286,8.377-16.744,14.463-4.687,6.4-7.846,13.895-9.933,21.516-3.01,10.993-3.87,22.531-3.511,33.89.097,3.081,4.898,3.095,4.8,0-.543-17.169,1.563-35.727,11.072-50.484,3.567-5.536,8.274-10.024,13.9-13.557,7.781-4.887,16.742-8.307,25.903-9.316,10.657-1.173,21.381.575,31.285,4.567,1.203.485,2.637-.528,2.952-1.676.377-1.37-.469-2.466-1.676-2.952h0Z"></path><path class="i" d="M112.993,134.725c.226,2.668.337,5.42.901,8.044.537,2.5,1.99,4.461,4.09,5.888.67.455,1.384.824,2.132,1.133-1.086-.448-.358-.146-.107-.03.773.356,1.544.715,2.315,1.073,2.448,1.136,4.896,2.271,7.349,3.395,1.178.54,2.584.335,3.284-.861.604-1.033.323-2.741-.861-3.284-2.279-1.044-4.553-2.098-6.827-3.153-.816-.378-1.631-.757-2.447-1.135-.223-.103-.446-.208-.67-.309-.057-.025-.113-.051-.17-.076-.672-.27-.767-.317-.284-.14-.129-.065-.256-.133-.381-.203-.274-.151-.544-.31-.805-.483-.138-.091-.273-.185-.406-.283.144.112.154.117.03.014-.192-.165-.378-.336-.553-.52-.094-.099-.185-.201-.273-.305.149.201.174.233.075.095-.126-.183-.247-.368-.355-.563-.034-.062-.324-.706-.196-.384.129.326-.107-.349-.126-.412-.063-.211-.116-.424-.164-.638-.049-.22-.091-.441-.129-.662-.011-.067-.116-.797-.073-.472.042.324-.049-.437-.057-.506-.043-.376-.086-.753-.125-1.129-.143-1.362-.249-2.726-.365-4.091-.109-1.292-1.025-2.4-2.4-2.4-1.214,0-2.51,1.101-2.4,2.4h0Z"></path><path class="i" d="M72.203,134.725c-.105,1.239-.201,2.479-.322,3.717-.062.638-.135,1.275-.207,1.912-.075.674.086-.5-.02.153-.041.253-.079.506-.128.757-.077.392-.171.782-.295,1.162-.046.14-.327.73-.052.186-.082.163-.159.328-.25.486-.057.1-.519.752-.154.292-.124.156-.258.305-.396.449-.173.179-.357.347-.547.507-.125.103-.113.096.036-.022-.131.096-.264.188-.4.277-1.214.799-2.606,1.346-3.92,1.956-2.258,1.049-4.56,2.033-6.787,3.146-1.159.58-1.485,2.217-.861,3.284.69,1.18,2.12,1.443,3.284.861,2.357-1.178,4.793-2.221,7.184-3.331,1.615-.75,3.189-1.441,4.595-2.563,3.913-3.124,3.656-8.698,4.04-13.228.109-1.293-1.181-2.4-2.4-2.4-1.389,0-2.29,1.103-2.4,2.4h0Z"></path><path class="i" d="M5.797,240.619c1.134-9.762,2.208-19.547,3.672-29.267,1.286-8.536,3.22-17.121,6.416-25.157,1.581-3.977,3.62-7.619,6.422-10.865,2.772-3.21,5.981-5.999,9.498-8.363,3.801-2.555,7.878-4.673,12.032-6.591.97-.448,1.944-.885,2.922-1.314.622-.273,1.244-.568,1.878-.812-.095.036-.276.111-.084.042.638-.231,1.282-.447,1.923-.67,4.736-1.651,9.473-3.302,14.209-4.953,1.223-.426,2.036-1.643,1.676-2.952-.326-1.188-1.723-2.105-2.952-1.676-4.322,1.507-8.644,3.013-12.966,4.52-6.572,2.291-12.988,5.232-18.919,8.885-7.709,4.749-14.658,11.209-18.553,19.493-3.899,8.291-6.136,17.36-7.681,26.359-1.893,11.025-3.001,22.216-4.292,33.323-.15,1.29,1.21,2.4,2.4,2.4,1.422,0,2.25-1.107,2.4-2.4h0Z"></path><path class="i" d="M188.819,239.022c-1.148-9.841-2.225-19.712-3.743-29.504-1.331-8.589-3.304-17.239-6.612-25.297-1.767-4.303-3.909-8.148-6.9-11.726-2.831-3.387-6.16-6.306-9.757-8.854-3.703-2.623-7.705-4.795-11.797-6.743-2.746-1.308-5.519-2.632-8.401-3.615-4.705-1.606-9.41-3.211-14.115-4.817-2.93-1-4.188,3.635-1.276,4.629,4.131,1.41,8.262,2.819,12.393,4.229.833.284,1.664.577,2.5.853.143.047.286.095.428.146.163.059-.609-.252.015.008.253.105.503.216.754.325.621.269,1.24.54,1.858.815,4.073,1.813,8.09,3.779,11.889,6.119,7.125,4.389,13.339,10.277,16.909,17.936,3.592,7.704,5.578,16.242,7.039,24.582,1.79,10.224,2.813,20.61,4.015,30.915.15,1.287.996,2.4,2.4,2.4,1.181,0,2.551-1.104,2.4-2.4h0Z"></path><path class="i" d="M144.868,301.176c6.736-.001,13.697.031,20.197-1.984,5.718-1.772,10.964-5.2,14.902-9.712,7.291-8.353,9.542-19.49,9.816-30.29.155-6.094-.292-12.184-.826-18.25-.114-1.291-1.022-2.4-2.4-2.4-1.21,0-2.514,1.101-2.4,2.4.885,10.061,1.703,20.5-.564,30.442-2.239,9.819-8.248,18.831-17.963,22.546-6.607,2.526-13.795,2.446-20.762,2.448-3.089,0-3.094,4.801,0,4.8h0Z"></path><path class="i" d="M44.823,296.388c-6.456-.001-13.063.022-19.279-1.958-5.172-1.647-9.772-4.971-13.147-9.208-6.057-7.604-7.49-17.776-7.579-27.206-.054-5.704.382-11.397.882-17.075.114-1.293-1.184-2.4-2.4-2.4-1.393,0-2.286,1.103-2.4,2.4-.935,10.626-1.703,21.548.717,32.042,2.564,11.116,9.556,20.802,20.296,25.219,7.204,2.962,15.246,2.986,22.911,2.988,3.089,0,3.094-4.799,0-4.8h0Z"></path><path class="i" d="M127.656,149.828c.412-.329-.476.353-.559.413-.314.231-.631.458-.95.682-.63.443-1.269.872-1.917,1.288-1.228.787-2.487,1.525-3.775,2.208-2.57,1.365-4.809,2.315-7.56,3.231-1.229.409-2.033,1.655-1.676,2.952.33,1.202,1.717,2.088,2.952,1.676,6.079-2.025,11.869-5.049,16.879-9.057,1.013-.81.845-2.549,0-3.394-1.001-1.001-2.379-.812-3.394,0h0Z"></path><path class="i" d="M60.272,153.598c8.121,6.206,17.571,9.91,27.691,11.158,1.289.159,2.4-1.217,2.4-2.4,0-1.429-1.108-2.241-2.4-2.4-9.268-1.143-17.869-4.847-25.269-10.502-1.031-.788-2.686-.16-3.284.861-.722,1.235-.172,2.494.861,3.284h0Z"></path><path class="i" d="M41.7,301.176c25.785,0,51.569,0,77.354,0,7.964,0,15.929,0,23.893,0,3.089,0,3.094-4.8,0-4.8-25.785,0-51.569,0-77.354,0-7.964,0-15.929,0-23.893,0-3.089,0-3.094,4.8,0,4.8h0Z"></path><path class="i" d="M80.907,184.289c-3.828,2.719-7.13,5.958-9.946,9.712-.349.465-.389,1.316-.242,1.849.153.557.584,1.16,1.103,1.434.557.294,1.232.442,1.849.242.632-.205,1.038-.575,1.434-1.103.079-.105.158-.209.237-.314.178-.238-.312.394-.039.05.163-.205.325-.411.491-.614.331-.406.671-.806,1.017-1.199.676-.766,1.382-1.507,2.114-2.22s1.491-1.399,2.274-2.055c.201-.168.403-.335.608-.499.082-.066.164-.131.246-.196.1-.079.552-.399.01-.011.426-.305.838-.629,1.266-.933.521-.37.928-.799,1.103-1.434.158-.574.087-1.339-.242-1.849-.653-1.013-2.189-1.638-3.284-.861h0Z"></path><path class="i" d="M70.972,225.515c-.028.313-.028.351-.001.116-.019.113-.044.225-.074.336-.022.087-.255.673-.119.399.173-.348-.513.592.018.005-.113.125-.236.237-.354.357.238-.243.243-.169-.043-.006-.22.125-.5.126-.001.023-.299.062-.601.174-.9.245-.1.019-.2.036-.3.051.367-.047.457-.06.27-.038-.154.006-.308.034-.462.04-.116.005-.834-.075-.377.015l-.229-.051c-.272-.092-.298-.09-.078.007-.214-.135-.257-.15-.13-.046.118.108.091.079-.082-.089.106.201-.071-.384-.031-.112-.048-.328-.006-1.202-.017-1.717-.055-2.609-.246-5.216-1.036-7.719-.767-2.431-2.003-4.538-3.563-6.535-.799-1.022-2.556-.838-3.394,0-1.009,1.009-.801,2.369,0,3.394.639.817,1.38,2.069,1.875,3.163.12.268.141.316.061.144.064.162.125.324.183.488.118.33.226.664.324,1.001.177.609.322,1.227.441,1.85.273,1.429.279,2.907.311,4.374.019.853-.003,1.728.149,2.569.164.912.606,1.697,1.215,2.39,1.661,1.888,4.648,1.99,6.896,1.257,2.715-.885,4.039-3.156,4.247-5.912.097-1.294-1.173-2.4-2.4-2.4-1.38,0-2.302,1.102-2.4,2.4h0Z"></path><path class="i" d="M63.204,225.434c-.033.224-.073.444-.136.662-.03.104-.065.207-.104.308.143-.326.158-.374.045-.141-.01.015-.229.405-.242.396.225-.279.256-.321.092-.126-.067.076-.137.149-.21.219-.073.07-.148.138-.225.203.289-.216.33-.25.121-.102-.132.076-.257.163-.392.235-.09.048-.182.093-.275.135.339-.139.386-.163.144-.072-.15.041-.296.094-.447.131-.101.025-.203.046-.305.065-.263.043-.206.036.172-.022-.023-.041-.606.041-.685.009.303.044.366.046.187.006-.089-.021-.177-.046-.264-.077.287.132.309.14.066.023-.11-.058-.217-.12-.321-.187-.218-.152-.208-.138.033.044-.096-.08-.19-.163-.28-.249-.348-.253.167.375-.044-.032-.059-.095-.114-.192-.164-.292.124.318.138.352.044.104-.06-.194-.124-.385-.174-.582-.407-1.614-.531-3.275-1.08-4.858-.671-1.934-1.72-3.54-2.997-5.126-.791-.982-2.582-.885-3.394,0-.957,1.043-.844,2.346,0,3.394.107.133.372.497.125.154.111.154.226.305.335.46.234.333.455.675.659,1.028.161.279.311.565.448.857.033.071.062.144.097.214.142.286-.159-.446-.062-.142.055.172.129.34.187.511.482,1.418.658,2.895.958,4.355.395,1.925,1.488,3.645,3.293,4.533,1.944.956,4.046.788,5.965-.136,1.784-.858,3.177-2.655,3.463-4.624.097-.665.112-1.245-.242-1.849-.291-.498-.862-.973-1.434-1.103-1.137-.259-2.759.348-2.952,1.676h0Z"></path><path class="i" d="M78.751,236.394c-4.441,8.544-15.591,13.016-24.325,8.134-2.295-1.283-4.258-3.059-5.617-5.321-1.468-2.443-2.053-5.139-2.475-7.926-.517-3.418-.916-6.869-.917-10.331,0-2.856.204-5.874,1.485-8.48.648-1.319,1.526-2.478,2.693-3.382,1.205-.934,3.26-1.743,3.733-3.274.418-1.353.757-2.376,2.191-3.032,1.278-.585,2.697-.335,4.016-.052,1.208.259,2.672-.349,2.952-1.676.379-1.795.592-3.494,2.227-4.472.648-.387,1.087-.596,1.901-.57,1.254.041,2.347.654,3.369,1.329,2.084,1.376,3.798,3.217,5.445,5.076,1.421,1.603,2.766,3.697,3.619,5.777.492,1.198,1.595,2.049,2.952,1.676,1.134-.312,2.171-1.746,1.676-2.952-1.213-2.957-2.872-5.673-5-8.061-2.186-2.453-4.657-5.001-7.641-6.477-2.869-1.419-6.068-1.598-8.845.12s-3.692,4.247-4.333,7.278l2.952-1.676c-2.613-.561-5.271-.748-7.715.536-2.276,1.195-3.941,3.371-4.397,5.9l1.103-1.434c-2.393,1.619-4.704,3.212-6.316,5.669-1.677,2.556-2.396,5.592-2.703,8.594-.356,3.484-.12,7.018.284,10.487.372,3.199.682,6.552,1.713,9.62,3.712,11.039,16.033,16.4,26.857,12.638,5.648-1.963,10.489-5.967,13.258-11.293,1.423-2.737-2.718-5.167-4.145-2.423h0Z"></path><path class="i" d="M66.556,208.253c3.059,3.437,3.869,8.131,4.391,12.53.148,1.246.282,2.493.424,3.74.137,1.205.221,2.324.869,3.38,1.237,2.016,3.661,3.394,6.053,3.223,1.293-.092,2.4-1.037,2.4-2.4,0-1.227-1.1-2.493-2.4-2.4-.689.049-1.255-.206-1.583-.483-.216-.182-.36-.37-.402-.461.116.248-.066-.228-.073-.265.036.21-.049-.467-.041-.388-.265-2.389-.514-4.783-.874-7.161-.712-4.692-2.168-9.111-5.37-12.71-2.058-2.312-5.443,1.092-3.394,3.394h0Z"></path><path class="i" d="M130.108,205.674c.77-5.314,1.54-10.628,2.31-15.942.917-6.329,1.844-12.657,2.752-18.987.236-1.649.3-3.265-.241-4.875-1.029-3.061-3.635-5.546-6.839-6.189-2.945-.591-5.981-.877-8.952-1.308-5.662-.822-11.325-1.641-16.988-2.46-2.987-.432-6.496-1.384-9.498-.812-4.084.778-6.718,4.296-7.288,8.228l-2.654,18.321-3.144,21.702c-.56,3.863-1.12,7.727-1.68,11.59l-1.605,11.07c-.428,2.955-1.321,6.173-.254,9.051,1.151,3.103,3.822,5.465,7.118,6.021.957.162,1.924.28,2.884.42l11.428,1.663,2.438.355c1.281.186,2.579-.317,2.952-1.676.31-1.128-.386-2.764-1.676-2.952-5.561-.809-11.151-1.505-16.695-2.429-2.122-.354-3.913-1.713-4.169-3.973-.042-.369-.013-.747.011-1.116-.033.512-.014.09-.002-.008.056-.448.13-.894.195-1.34.041-.281.082-.561.122-.842.403-2.775.805-5.55,1.207-8.324,1.519-10.473,3.036-20.947,4.553-31.42,1.03-7.11,2.06-14.22,3.09-21.33.207-1.428.378-2.866.621-4.289.36-2.106,1.749-3.878,3.991-4.124.171-.019,1.569.064.847-.014.086.009.172.025.258.037.464.065.928.134,1.392.201,5.582.808,11.164,1.613,16.746,2.423,3.322.482,6.644.964,9.965,1.447,1.051.153,2.107.283,3.155.458,2.144.359,3.904,1.806,4.113,4.068.017.187-.056,1.497.024.771-.005.047-.015.094-.02.141-.032.262-.076.523-.114.784l-.442,3.05c-.5,3.453-1.001,6.906-1.501,10.36-.954,6.584-1.908,13.168-2.863,19.753l-.177,1.222c-.186,1.281.317,2.579,1.676,2.952,1.128.31,2.765-.385,2.952-1.676h0Z"></path><path class="i" d="M104.015,166.203c-1.971-.286-3.941-.574-5.912-.86-.665-.096-1.245-.112-1.849.242-.498.291-.973.862-1.103,1.434-.14.614-.11,1.304.242,1.849.314.487.833,1.016,1.434,1.103,1.971.286,3.941.574,5.912.86.665.096,1.245.112,1.849-.242.498-.291.973-.862,1.103-1.434.14-.614.11-1.304-.242-1.849-.314-.487-.833-1.016-1.434-1.103h0Z"></path><path class="i" d="M97.746,213.779c-3.912-1.474-8.079,1.1-8.555,5.204-.333,2.871.773,5.859,3.002,7.705,3.924,3.249,8.529,5.767,12.943,8.273,2.12,1.204,4.252,2.396,6.429,3.496,1.156.585,2.602.305,3.284-.861.625-1.068.3-2.697-.861-3.284-3.647-1.844-7.203-3.893-10.711-5.988-1.963-1.173-3.915-2.372-5.804-3.662-.363-.247-.723-.498-1.079-.756-.174-.126-.345-.255-.518-.382-.221-.162.136.108.144.114-.105-.083-.211-.164-.314-.249-.233-.192-.466-.384-.685-.593-.096-.092-.189-.186-.282-.282-.035-.036-.068-.075-.102-.112.297.324.042.05-.084-.158-.598-.993-.812-2.437-.468-3.398-.065.183.115-.132.204-.221.191-.194.203-.217.513-.359.44-.202,1.024-.102,1.669.141,1.213.457,2.631-.508,2.952-1.676.37-1.347-.459-2.494-1.676-2.952h0Z"></path><path class="i" d="M118.495,225.243c-3.975-2.265-7.936-4.554-11.92-6.804-1.801-1.017-3.607-2.022-5.42-3.016-1-.548-2.845-1.32-2.716-2.76.126-1.416,2.078-1.647,3.19-1.493,2.129.295,4.134,1.466,6.046,2.365,4.605,2.163,9.205,4.335,13.808,6.503,2.018.951,4.673-1.093,3.284-3.284-1.602-2.525-3.203-5.051-4.806-7.576-1.482-2.335-3.333-4.68-4.416-7.235-.647-1.526-.781-3.27,1.277-3.339,2.17-.073,3.988,2.091,5.342,3.518,3.705,3.903,6.793,8.343,9.229,13.14,1.217,2.396,2.005,4.931,3.109,7.364,1.066,2.35,1.864,4.707,2.35,7.25.974,5.093,1.12,10.583.712,15.744-.368,4.659-1.754,9.521-5.161,12.89-2.873,2.841-7.6,4.288-11.297,2.126-3.434-2.009-4.561-6.5-4.861-10.193-.053-.658.007-1.388-.168-2.025-.274-.996-1.123-1.446-1.949-1.936-1.409-.835-2.817-1.671-4.225-2.506-2.719-1.614-5.45-3.211-8.159-4.842-2.1-1.265-4.362-2.881-5.051-5.37-.308-1.111-.041-2.68,1.389-2.797,1.292-.106,2.4-1.027,2.4-2.4,0-1.216-1.101-2.507-2.4-2.4-2.94.242-5.25,2.005-6.039,4.902-.837,3.07.544,6.177,2.543,8.483,2.155,2.485,5.256,4.034,8.04,5.687,3.308,1.965,6.616,3.929,9.925,5.89l-1.189-2.072c.174,4.066.914,8.432,3.273,11.849,2.601,3.766,6.876,5.903,11.482,5.502,4.759-.414,8.724-2.931,11.56-6.709,2.905-3.87,4.162-8.632,4.625-13.382.478-4.914.261-10.024-.385-14.914-.333-2.521-.819-5.023-1.664-7.427-.821-2.335-1.837-4.649-2.793-6.934-1.914-4.572-4.342-8.902-7.328-12.862-1.616-2.143-3.339-4.207-5.224-6.12-1.663-1.688-3.579-3.334-5.914-3.972-2.417-.66-5.31-.155-7.072,1.719-1.971,2.097-1.956,5.063-.937,7.602,1.117,2.78,2.962,5.255,4.56,7.773,1.692,2.665,3.382,5.331,5.073,7.996l3.284-3.284c-4.231-1.994-8.461-3.99-12.694-5.98-3.797-1.785-8.307-4.576-12.673-3.281-4.054,1.203-6.13,5.652-3.979,9.401.879,1.532,2.328,2.519,3.84,3.353,1.741.96,3.483,1.918,5.215,2.894,4.166,2.346,8.304,4.74,12.458,7.107,2.688,1.532,5.109-2.614,2.423-4.145h0Z"></path><path class="i" d="M127.564,201.819c2.017,2.757,3.115,5.761,4.216,8.873,1.141,3.226,2.128,6.519,2.892,9.856.289,1.264,1.742,2.009,2.952,1.676,1.298-.357,1.966-1.685,1.676-2.952-.785-3.428-1.803-6.813-2.987-10.124-1.193-3.336-2.495-6.869-4.604-9.752-.764-1.045-2.083-1.563-3.284-.861-1.031.603-1.631,2.232-.861,3.284h0Z"></path></g></g></svg>