<?xml version="1.0" encoding="UTF-8"?>
<svg id="_レイヤー_1" data-name="レイヤー 1" xmlns="http://www.w3.org/2000/svg" viewBox="0 0 120 120">
  <defs>
    <style>
      .cls-1 {
        fill: #211715;
      }

      .cls-2 {
        fill: #fff;
      }

      .cls-3 {
        fill: #fcdc4a;
      }
    </style>
  </defs>
  <path class="cls-2" d="M50.73,100.92c4.06-.09,7.42,3.44,7.5,7.87,0,.09,0,.18,0,.27,0,5.08-2.9,8.3-7.5,8.3s-7.5-3.21-7.5-8.3c-.06-4.43,3.18-8.08,7.24-8.15.09,0,.17,0,.26,0Z"/>
  <path class="cls-2" d="M95.29,100.92c4.06-.09,7.42,3.44,7.5,7.87,0,.09,0,.18,0,.27,0,5.08-2.9,8.3-7.5,8.3s-7.5-3.21-7.5-8.3c-.06-4.43,3.18-8.08,7.24-8.15.09,0,.17,0,.26,0Z"/>
  <path class="cls-3" d="M69.07,22.33c-16.31.03-31.13.05-34.53,0h-12.26c4,15.3,9.57,36.26,13.53,50.98h13.05c4.95,0,44.58-.18,56.47-.22,1.46,0,2.72-1.1,3.05-2.65,1.81-8.54,7.05-33.37,9.23-43.93.38-1.85-.68-3.68-2.37-4.1-.22-.06-.45-.08-.68-.08-8.68-.05-27.95-.01-45.48.02Z"/>
  <path class="cls-1" d="M34.54,24.92c9.61.16,19.22.03,28.83.02,13.72-.02,27.44-.04,41.17-.05,2.53,0,5.05,0,7.58.01.74,0,2.21-.29,2.84.14.83.57-.04,2.66-.21,3.47-1.7,8.18-3.42,16.36-5.14,24.54-.82,3.87-1.63,7.74-2.45,11.61-.3,1.43-.61,2.87-.91,4.3-.3,1.42-.58,1.5-1.85,1.51-5.76.02-11.53.04-17.3.07-12.19.05-24.37.1-36.56.15h-1.67c-3.07,0-3.07,5.21,0,5.21,11.46,0,22.92-.08,34.38-.13,6.42-.03,12.84-.05,19.26-.07,1.26.07,2.53.03,3.79-.12,2.3-.5,4.09-2.49,4.5-5.02.7-3.31,1.4-6.62,2.1-9.94,1.84-8.72,3.67-17.44,5.5-26.17.37-1.78.74-3.56,1.11-5.34.48-2.3.95-4.57-.35-6.69-2-3.26-5.59-2.73-8.71-2.74-13.48-.03-26.96,0-40.44.03-11.32.02-22.63.09-33.95,0-.51,0-1.01,0-1.52-.02-3.07-.05-3.07,5.16,0,5.21h0Z"/>
  <path class="cls-1" d="M41.25,49.38c7.6,0,15.2-.04,22.8-.06,9.94-.03,19.88-.06,29.83-.09,2.7,0,5.41-.02,8.11-.02,3.07,0,3.07-5.21,0-5.21-6.68,0-13.36.04-20.04.06-10.2.03-20.4.06-30.6.09-3.37.01-6.73.02-10.1.02-3.07,0-3.07,5.21,0,5.21h0Z"/>
  <path class="cls-1" d="M53.8,22.55c1.41,13.86,2.63,27.75,4.02,41.61.29,2.85.57,5.71.9,8.56.04,1.42,1.08,2.56,2.38,2.6,1.31,0,2.38-1.17,2.38-2.6-1.67-13.96-2.79-28.01-4.13-42.01-.26-2.72-.52-5.45-.79-8.17-.04-1.42-1.08-2.56-2.38-2.6-1.31,0-2.38,1.17-2.38,2.6h0Z"/>
  <path class="cls-1" d="M84.07,32.09c-.82,11.11-1.61,22.21-2.38,33.32-.18,2.57-.35,5.13-.51,7.7,0,1.44,1.06,2.61,2.38,2.61,1.32,0,2.39-1.16,2.39-2.6h0c.69-11.27,1.55-22.52,2.37-33.77.18-2.42.35-4.84.53-7.26-.01-1.43-1.07-2.59-2.38-2.6-1.31.03-2.36,1.18-2.38,2.6h0Z"/>
  <path class="cls-1" d="M2.3,5.31c2,0,4.01,0,6.01,0h3.37c1.07-.11,2.14-.11,3.21,0,1.14.25,1.4,3.33,1.68,4.43,1.27,5.02,2.58,10.04,3.89,15.05,3.45,13.2,6.95,26.39,10.48,39.57,1.49,5.57,2.99,11.15,4.49,16.72.54,1.99,1.08,3.98,1.62,5.97.22,1.07.56,2.11.99,3.1,1.06,1.93,2.98,3.09,5.04,3.04,10.13.18,20.27.04,30.4.06,9.64.02,19.29.04,28.93.05h1.26c3.07,0,3.07-5.21,0-5.21-8.56,0-17.12-.01-25.69-.04l-32.65-.05c-.75,0-1.51.04-2.26,0-.9-.06-.96-.59-1.19-1.44-.51-1.85-1.01-3.71-1.52-5.57-1.48-5.45-2.94-10.9-4.4-16.36-3.53-13.2-7.04-26.42-10.51-39.64-1.36-5.19-2.71-10.39-4.04-15.59-.44-1.71-.76-3.51-1.31-5.18C18.35-1.1,12.41.12,8.31.12c-2,0-4.01-.01-6.01-.01C-.77.1-.77,5.31,2.3,5.31Z"/>
  <path class="cls-1" d="M50.73,103.52c.22,0,.44.02.65.03.68.02-.44-.13.21.03.34.07.67.17.99.28.09.03.68.32.17.05.12.06.24.12.35.19.17.1.34.2.51.32.1.07.72.62.3.21.24.23.47.46.69.72,0,0,.42.52.18.21s.14.22.15.24c.19.31.31.7.52.99s-.16-.54.02.05c.08.27.17.53.23.8.04.19.17,1.21.12.57.02.37.04.73.04,1.1,0,.22-.01.45-.03.67,0,.12-.12.82,0,.17-.06.41-.15.81-.25,1.21-.05.19-.12.37-.18.56.02-.08.22-.5.03-.09-.16.34-.34.66-.51.99-.06.12-.28.38.07-.08-.11.14-.21.28-.33.42-.1.11-.2.22-.3.33s-.62.5-.1.12c-.24.18-.47.35-.72.5-.15.09-.31.17-.47.26.55-.29.03-.02-.09.02-.29.11-.59.2-.89.27-.1.02-.73.13-.13.04-.2.03-.4.05-.6.06-.42.03-.83.03-1.25,0-.14,0-.27-.02-.41-.03-.65-.06.47.13-.15-.03-.31-.08-.61-.14-.91-.25-.17-.06-.34-.13-.51-.2.58.23-.02-.02-.15-.1-.27-.16-.54-.34-.79-.54.53.4-.16-.19-.28-.31s-.22-.28-.34-.41c.34.37.15.23.07.09-.22-.37-.41-.74-.6-1.14.04.08.18.53.04.09-.06-.19-.12-.37-.17-.56-.09-.33-.15-.66-.21-1-.14-.68.02.55-.02-.16-.01-.22-.03-.44-.04-.67-.01-.44,0-.89.03-1.33-.04.58-.02.1.02-.05.05-.24.1-.49.16-.72.05-.2.12-.4.18-.6.2-.63-.23.43.06-.14.2-.4.43-.76.64-1.15.18-.33-.37.41.04-.04.18-.2.34-.4.53-.59.09-.09.19-.18.29-.27-.43.41.19-.13.3-.21.14-.09.28-.18.42-.26.11-.06.75-.35.23-.14.38-.16.77-.28,1.16-.38.09-.02.75-.11.19-.05.29-.03.58-.04.87-.05,1.32,0,2.38-1.17,2.38-2.6s-1.07-2.6-2.38-2.6c-4.38-.02-8.25,3.13-9.5,7.72-1.08,4.1.01,9.09,3.16,11.75,3.37,2.61,7.79,2.95,11.45.86,3.46-2.01,5.14-6.51,4.71-10.65-.53-5.49-4.77-9.67-9.82-9.67-1.32,0-2.38,1.17-2.38,2.6s1.07,2.6,2.38,2.6h-.02Z"/>
  <path class="cls-1" d="M95.29,103.52c.22,0,.44.02.65.03.68.02-.44-.13.21.03.34.07.67.17.99.28.09.03.68.32.17.05.12.06.24.12.35.19.17.1.34.2.5.32.11.07.72.62.3.21.24.23.47.46.69.72,0,0,.42.52.18.21s.14.22.15.24c.19.31.31.7.52.99s-.16-.54.02.05c.08.27.17.53.23.8.04.19.17,1.21.12.57.02.37.04.73.04,1.1,0,.22,0,.45-.03.67,0,.12-.12.82,0,.17-.06.41-.15.81-.25,1.21-.05.19-.12.37-.18.56.02-.08.22-.5.03-.09-.16.34-.34.66-.51.99-.06.12-.28.38.07-.08-.11.14-.22.28-.33.42-.1.11-.2.22-.3.33s-.61.5-.1.12c-.23.18-.47.35-.72.5-.15.09-.31.17-.47.26.55-.29.02-.02-.09.02-.29.11-.59.2-.89.27-.1.02-.73.13-.12.04-.2.03-.4.05-.6.06-.42.03-.83.03-1.25,0-.14,0-.27-.02-.41-.03-.65-.06.47.13-.15-.03-.31-.08-.61-.14-.91-.25-.17-.06-.34-.13-.51-.2.58.23-.02-.02-.15-.1-.27-.16-.54-.35-.79-.54.53.4-.16-.19-.28-.31s-.22-.28-.34-.41c.34.37.15.23.07.09-.22-.37-.41-.74-.6-1.14.04.08.18.53.04.09-.06-.19-.12-.37-.17-.56-.09-.33-.15-.66-.22-1-.14-.68.02.55-.02-.16-.01-.22-.03-.44-.04-.67-.01-.44,0-.89.03-1.33-.04.58-.02.1.02-.05.05-.24.1-.49.16-.72.05-.2.12-.4.18-.6.2-.63-.23.43.06-.14.2-.4.43-.76.64-1.15.17-.33-.37.41.04-.04.18-.2.34-.4.53-.59.09-.09.19-.18.29-.27-.43.41.19-.13.3-.21.14-.09.28-.18.42-.26.11-.06.75-.35.23-.14.38-.16.77-.28,1.16-.38.08-.02.75-.11.19-.05.29-.03.58-.04.87-.05,1.32,0,2.38-1.17,2.38-2.6s-1.07-2.6-2.38-2.6c-4.38-.02-8.25,3.13-9.5,7.72-1.08,4.1.01,9.09,3.17,11.75,3.37,2.62,7.79,2.95,11.45.86,3.46-2.01,5.14-6.51,4.71-10.65-.53-5.49-4.77-9.67-9.82-9.67-1.32,0-2.38,1.17-2.38,2.6s1.07,2.6,2.38,2.6h-.01Z"/>
</svg>