<?xml version="1.0" encoding="UTF-8"?>
<svg id="b" xmlns="http://www.w3.org/2000/svg" viewBox="0 0 100 101.23">
  <defs>
    <style>
      .cls-1 {
        fill: #ffe9cc;
      }

      .cls-2 {
        fill: #211715;
      }

      .cls-3 {
        fill: #fff;
      }
    </style>
  </defs>
  <g id="c">
    <g id="d">
      <path class="cls-3" d="M64.83,23.43c.46-.42,1.15-.62,1.8-.53.64.1,1.23.48,1.52,1.01.21.37.28.79.31,1.21.14,1.63-.18,3.28-.92,4.76-.36.72-.83,1.41-1.48,1.94-.5.4-1,.62-1.73.4,0,0-.09-.03-.26-.08-.16.63-.37,1.17-.46,1.44-.54,1.37-3.71,6.43-7.6,7.83.03.23.07.5.13.83.19,1.11.5,2.36,1.97,3.18.09.03,1.6.74,2.05.95-2.58,2.2-6.47,3.83-10.51,3.85-4.06-.02-7.97-1.67-10.54-3.88.53-.24,1.9-.89,1.98-.92,1.47-.82,1.78-2.07,1.97-3.18.07-.39.12-.69.14-.95-1.66-.79-3.19-2.01-4.54-3.52-1.63-1.82-2.62-3.76-3.2-5.44-.24.07-.38.1-.38.1-.82.22-1.45-.22-1.95-.62-.65-.53-1.12-1.22-1.48-1.94-.74-1.48-1.06-3.14-.92-4.76.04-.41.11-.84.31-1.21.29-.53.88-.92,1.52-1.01s1.33.11,1.8.53c0,0-3.42-15.09,15.21-15.09s15.21,15.09,15.21,15.09h0Z"/>
      <path class="cls-3" d="M28.1,51.77c-5.65,5.18-9.07,12.74-10.45,19.85-.38,1.97-.64,3.99-.31,5.97.35,2.12,1.62,4.97,4.03,5.65h13.55v-7.4h31.51v7.4h11.38c2.41-.68,3.68-3.53,4.03-5.65.33-1.98.07-4-.31-5.97-2.09-10.76-8.86-22.56-20.97-25.58-2.56,2.36-6.64,4.17-10.89,4.19-4.26-.02-8.36-1.84-10.92-4.22-4.17,1.02-7.71,3.07-10.65,5.76h0Z"/>
      <path class="cls-3" d="M65.43,95.09h1.8c.72,0,1.24-.69,1.05-1.39-1.08-3.94-2.14-7.6-2.91-10.34h-30.91c-.78,2.74-1.83,6.4-2.91,10.34-.19.7.33,1.39,1.05,1.39h32.83,0Z"/>
      <path class="cls-3" d="M32.33,73.22c2.29-.35,4.51-.32,6.45,1.31,1.15.96,3.3,2.46,3.61,4.14.12.67-.21,1.75-.92,2.15l-1.61,4.66c.58.53.67.95.4,1.33-.36.51-.83.71-1.47.7s-1.06-.21-1.58-.55c.22.43-.98,1.09-1.29,1.17-1.16.31-2-.19-2.86-.87.36,1.04-1.16,2.28-2.36,1.54-1.23-.76-2.12-1.37-2.85-2.5-.71-1.09-1.04-2.3-1.47-3.1-.69-1.36-2.03-2.22-1.91-3.11.18-1.66,1.76-3.78,2.66-4.77,1.17-1.27,3.56-1.84,5.2-2.09"/>
      <path class="cls-3" d="M34.8,80.24c1.85,2.21,3.01,3.41,4.77,5,1.91.54,2.61-.79,2.23-1.52-.24-.47-2.08-2.53-2.33-2.84-1.08-1.34-1.35-1.85-2.38-3.63"/>
      <path class="cls-3" d="M67.05,88.38c-.2.13-.39.25-.59.36-.44.25-1.45.54-2.09.18-.4-.23-.6-.6-.64-.99-.04.02-.06.03-.06.03-.86.5-2.24.76-3.01.08-.45-.39-.72-1.46-.18-2.23.07-.13.18-.27.3-.42-.45.17-1.28.4-1.76-.6-.32-.66-.04-1.69.76-2.46.3-.29.93-1.03,1.55-1.58.13-.12.27-.23.4-.34l-.56-.08c-.41.02-.92-.36-1.12-.76-.17-.33-.12-.86,0-1.19.28-.77,1.58-1.6,2.92-2.31,1.43-.76,2.45-1.06,3.96-1.27,1.42-.14,2.4-.17,3.82.06,1.29.21,2.19.81,3.12,1.42.56.37,1.74,1.63,2.03,2.25.53,1.12.8,2.16.72,3.18-.13,1.68-.57,2.63-1.62,3.73-.61.64-1.68,1.61-2.37,2.15-.97.77-1.9.86-2.57.57-.54-.23-.6-1.26-.39-1.66,0,0,.02-.04.04-.08h-.02c-.22.16-.41.3-.55.4-.5.35-1.31,1.02-2.12,1.56h0Z"/>
      <g id="e">
        <path class="cls-1" d="M70.58,15.37c-.23-.48-.51-1.28-.59-1.72-.46-2.39-.07-4.92-.73-7.26-.8-2.81-2.62-4.51-5.16-5.24-2.57-.74-5.91-.01-7.08,2.58-.45-.2-.9-.39-1.37-.55-1.91-.67-3.93-.98-5.95-.98-3.99,0-7.37,1.16-10.08,3.1-3.04,2.18-6.46,6-6.95,12.11-.02.22-.03.44-.04.67-.09,2.15.52,5.8.41,4.8.48.02.94.2,1.3.49,1.03-.18,2.7-1.13,3.45-1.55,4.53-2.57,7.94-4.74,10.98-7.35-.27.73-.73,1.55-1.11,2.34-.3.62.22,1.3.9,1.19,2.69-.46,4.87-2.2,6.79-4.32.87,2.52,2.56,4.49,4.74,6.43,1.92,1.71,3.73,2.59,4.93,3.18.41-.3.95-.45,1.47-.41.24-1.42.39-2.97.31-4.8-.04-.94-.16-1.88-.35-2.79h0c.85.26,1.78.42,2.82.5.4.03,1.5-.04,1.31-.43h0Z"/>
        <path class="cls-1" d="M41.46,80.82l-.59,1.69c.26.31.51.61.68.85h17.52c.15-.36.38-.72.72-1.04.3-.29.93-1.03,1.55-1.58.1-.09.21-.18.31-.26h-19.79c-.12.14-.25.26-.4.34Z"/>
        <path class="cls-1" d="M69.86,87.99c-.19-.22-.28-.56-.28-.88-.05-.16-.1-.31-.15-.47-.1.07-.18.13-.26.18-.5.35-1.31,1.02-2.12,1.56-.07.05-.14.09-.21.14.46,1.63.95,3.38,1.45,5.19.19.7-.33,1.39-1.05,1.39h-34.63c-.72,0-1.24-.69-1.05-1.39.61-2.21,1.21-4.34,1.75-6.26-.08-.06-.16-.12-.25-.19.36,1.04-1.16,2.28-2.36,1.54-.29-.18-.56-.35-.81-.52-.89,2.79-1.84,5.75-2.79,8.75-.52,1.65.7,3.33,2.43,3.33h40.78c1.73,0,2.96-1.68,2.43-3.33-.99-3.1-1.97-6.17-2.88-9.04h0Z"/>
      </g>
    </g>
    <g id="f">
      <path class="cls-2" d="M39.58,47.11c.5-.23,1-.47,1.5-.7.09-.04.18-.09.28-.13.04-.02.08-.03.11-.05.12-.06-.25.1-.13.05.42-.16.8-.45,1.13-.75,1.12-1.03,1.41-2.52,1.6-3.96.06-.46-.45-.9-.88-.88-.53.02-.81.39-.88.88.03-.25-.01.08-.02.12-.02.1-.03.19-.05.29-.02.13-.05.27-.07.4-.06.28-.12.55-.22.81-.02.06-.04.11-.06.17-.04.09-.03.07.02-.04-.02.04-.03.07-.05.11-.06.13-.13.26-.21.38-.03.05-.07.1-.11.16.13-.19-.04.04-.07.08-.11.12-.23.23-.35.34-.08.06-.07.06,0,0-.03.02-.06.04-.09.07-.07.05-.16.09-.23.15-.17.13.08,0,.04,0-.08,0-.17.07-.25.11-.17.07-.34.15-.51.23-.47.22-.94.44-1.41.66-.42.19-.55.83-.31,1.2.28.43.75.52,1.2.31h0Z"/>
      <path class="cls-2" d="M55.15,41.43c.2,1.52.48,3.12,1.71,4.17.19.17.4.32.62.46.1.07.21.12.32.17.35.15-.19-.09-.06-.03.19.09.38.17.56.26.48.22.96.45,1.44.67.42.19.96.13,1.2-.31.2-.38.13-.99-.31-1.2-.45-.21-.9-.42-1.34-.63-.2-.09-.4-.19-.6-.28-.1-.04-.21-.11-.31-.13.27.06.07,0-.01-.04-.09-.06-.18-.12-.26-.18.15.11-.06-.05-.08-.08-.06-.06-.12-.11-.18-.17-.06-.07-.12-.14-.18-.21.14.16,0,0-.02-.04-.09-.13-.17-.27-.24-.42-.03-.05-.15-.25-.03-.05-.04-.07-.06-.16-.09-.23-.09-.26-.16-.54-.21-.81-.03-.15-.05-.29-.08-.44-.02-.12-.04-.23-.06-.35,0-.04-.05-.38-.02-.15-.06-.45-.36-.9-.88-.88-.42.02-.94.39-.88.88h0Z"/>
      <path class="cls-2" d="M21.61,82.4c-1.32-.39-2.17-1.54-2.73-2.73-.68-1.44-.87-3.04-.8-4.62.08-1.74.44-3.48.85-5.17.35-1.42.77-2.83,1.27-4.2,1.98-5.5,5.21-10.67,9.79-14.37,2.64-2.13,5.73-3.65,9.02-4.45,1.09-.27.63-1.96-.47-1.69-6.41,1.58-11.72,5.73-15.46,11.08-1.81,2.59-3.24,5.43-4.35,8.39-1.18,3.12-2.09,6.47-2.36,9.8-.29,3.57.85,8.49,4.77,9.66,1.08.32,1.55-1.37.47-1.69h0Z"/>
      <path class="cls-2" d="M78.04,84.09c3.31-.98,4.72-4.85,4.82-7.99.07-2.01-.31-4.04-.75-5.99-.34-1.5-.76-2.98-1.27-4.44-2.05-5.93-5.44-11.58-10.36-15.57-2.89-2.34-6.22-4.06-9.84-4.94-1.09-.27-1.56,1.42-.47,1.69,5.87,1.44,10.8,5.18,14.27,10.07,3.43,4.83,5.72,10.69,6.52,16.57.26,1.95.23,3.93-.49,5.78-.52,1.34-1.46,2.71-2.9,3.13-1.08.32-.62,2.01.47,1.69h0Z"/>
      <path class="cls-2" d="M38.13,46.62c2.36,2.18,5.43,3.63,8.59,4.2,3.45.62,6.94.1,10.13-1.33,1.6-.72,3.09-1.68,4.38-2.87.83-.77-.41-2-1.24-1.24-2.13,1.97-4.9,3.21-7.74,3.74-3,.55-6.15.09-8.92-1.17-1.44-.65-2.8-1.5-3.96-2.57-.83-.76-2.07.47-1.24,1.24h0Z"/>
      <path class="cls-2" d="M65.45,24.05c.54-.46,1.45-.37,1.88.2.28.37.28.92.29,1.36.02.52,0,1.04-.1,1.55-.18,1.01-.52,2-1.06,2.88-.38.63-1.05,1.56-1.88,1.34-1.09-.29-1.56,1.4-.47,1.69,1.57.42,2.8-.61,3.65-1.83.88-1.26,1.37-2.81,1.55-4.33.16-1.43.15-3.22-1.06-4.21-1.21-.98-2.87-.88-4.04.1-.36.3-.31.92,0,1.24.36.36.88.31,1.24,0h0Z"/>
      <path class="cls-2" d="M63.42,30.83c-.02.61-.18,1.2-.37,1.77-.07.22-.15.43-.23.65-.01.04-.09.23-.03.08.06-.15-.03.06-.05.1-.29.59-.63,1.16-1,1.71-1.04,1.58-2.32,3.09-3.84,4.24-.9.67-1.88,1.21-2.98,1.45s-.64,1.93.47,1.69c2.23-.48,4.13-2.01,5.65-3.65,1.23-1.33,2.38-2.84,3.18-4.47.53-1.09.89-2.35.94-3.56.05-1.13-1.71-1.13-1.75,0h0Z"/>
      <path class="cls-2" d="M35.02,22.81c-1.2-1.01-2.95-1.09-4.14-.02-1.16,1.03-1.12,2.87-.94,4.28.19,1.52.71,3.05,1.62,4.3.88,1.21,2.21,2.27,3.78,1.91,1.1-.25.63-1.94-.47-1.69-.77.17-1.56-.74-1.94-1.3-.61-.89-.99-1.92-1.2-2.97-.1-.51-.14-1.03-.13-1.55,0-.45,0-1,.23-1.42.37-.67,1.37-.79,1.95-.31.36.3.88.35,1.24,0,.31-.31.36-.93,0-1.24h0Z"/>
      <path class="cls-2" d="M34.07,30.5c.59,2.9,1.98,5.62,3.94,7.84,2.07,2.33,4.82,4.27,7.97,4.71.47.07.94-.11,1.08-.61.11-.41-.14-1.01-.61-1.08-2.88-.4-5.3-2.12-7.19-4.26-1.76-1.99-2.96-4.46-3.49-7.07-.09-.46-.64-.73-1.08-.61-.48.13-.71.61-.61,1.08h0Z"/>
      <path class="cls-2" d="M67.34,23.01c.75-4.58.29-9.43-2.21-13.42-2.39-3.81-6.33-6.6-10.69-7.7-4.38-1.1-9.23-.65-13.26,1.43-3,1.55-5.61,4.03-7.27,6.97-1.11,1.98-1.78,4.15-2.05,6.39-.26,2.1-.06,4.24.28,6.33.08.47.66.73,1.08.61.5-.14.69-.61.61-1.08-.55-3.36-.47-7.01,1.02-10.24,1.27-2.76,3.41-5.11,5.89-6.71,3.37-2.17,7.54-2.92,11.5-2.35,4.08.58,7.85,2.71,10.44,5.91,3.02,3.74,3.74,8.76,2.97,13.4-.08.47.12.94.61,1.08.42.11,1-.14,1.08-.61h0Z"/>
      <path class="cls-2" d="M46.82,35.25c.76.75,1.96.98,2.99.98s2.22-.23,2.99-.98c.33-.32.35-.92,0-1.24-.35-.32-.89-.34-1.24,0-.03.03-.18.15-.04.04.14-.11-.05.03-.09.05-.06.04-.12.07-.19.1-.04.02-.1.04-.13.06.06-.04.17-.07.04-.02-.21.07-.41.13-.63.17-.03,0-.27.04-.05.01-.06,0-.13.01-.19.02-.15.01-.31.02-.46.02-.14,0-.28,0-.42-.02-.08,0-.16-.01-.23-.02.12.01.07,0-.02,0-.22-.04-.43-.09-.64-.17-.09-.03-.16-.1.01,0-.03-.02-.08-.03-.11-.05-.07-.04-.14-.07-.21-.12-.05-.03-.1-.07-.15-.1.24.13.1.08.03,0-.33-.32-.92-.35-1.24,0-.32.35-.35.9,0,1.24h0Z"/>
      <path class="cls-2" d="M49.46,28.78c.13.49.25.98.32,1.48l-.03-.23c0,.07.01.14,0,.2l.03-.23s-.01.06-.02.09l.09-.21s-.02.04-.03.06l.14-.18s-.03.03-.05.05l.18-.14s-.08.04-.12.06l.21-.09c-.06.03-.13.05-.2.06l.23-.03c-.06,0-.12,0-.19,0l.23.03c-.07,0-.14-.03-.21-.04-.12-.04-.23-.04-.35-.02-.12,0-.23.04-.33.1-.18.11-.36.31-.4.52-.05.22-.04.48.09.67.11.18.3.37.52.4.17.02.33.07.51.07.27.01.52-.07.76-.18.3-.14.53-.41.61-.74.07-.27.04-.51,0-.78-.08-.48-.19-.95-.31-1.41-.06-.21-.21-.41-.4-.52s-.46-.16-.67-.09c-.46.15-.74.6-.61,1.08h0Z"/>
      <path class="cls-2" d="M41.85,24.87c-.24.78-.08,2.59,1.4,2.74,1.96-.01,2.07-2.19,1.41-3.22-.54-.84-2.13-1.19-2.81.48Z"/>
      <path class="cls-2" d="M57.5,24.87c.24.78.08,2.59-1.4,2.74-1.96-.01-2.07-2.19-1.41-3.22.54-.84,2.13-1.19,2.81.48h0Z"/>
      <path class="cls-2" d="M40.37,76.72h23.02c1.13,0,1.13-1.75,0-1.75h-23.02c-1.13,0-1.13,1.75,0,1.75h0Z"/>
      <path class="cls-2" d="M69.02,88.23c.9,2.81,1.8,5.62,2.69,8.43.15.48.35.95.25,1.47-.08.39-.29.75-.6,1-.36.29-.77.36-1.21.36-.71,0-1.42,0-2.14,0H29.98c-.49,0-.93.01-1.35-.26-.32-.2-.57-.51-.69-.87-.17-.47-.07-.89.08-1.35.23-.72.46-1.44.69-2.15.46-1.43.91-2.87,1.37-4.3.22-.68.43-1.36.65-2.04.34-1.08-1.35-1.54-1.69-.47-.47,1.46-.93,2.92-1.4,4.38-.48,1.49-1.04,2.98-1.43,4.5-.31,1.18.03,2.46.9,3.32.98.97,2.19,1,3.49,1h38.86c.65,0,1.31.04,1.93-.18,1.12-.39,2.02-1.35,2.26-2.52.29-1.4-.42-2.83-.84-4.14-.48-1.51-.96-3.02-1.44-4.53-.22-.7-.45-1.4-.67-2.1-.34-1.07-2.03-.61-1.69.47h0Z"/>
      <path class="cls-2" d="M41.87,81.36h19.79c1.13,0,1.13-1.75,0-1.75h-19.79c-1.13,0-1.13,1.75,0,1.75h0Z"/>
      <path class="cls-2" d="M65.99,88.75c.36,1.27.72,2.53,1.07,3.8.1.35.19.69.29,1.04.04.13.15.36.09.48-.12.28-.64.15-.9.15h-33.65c-.25,0-.52.04-.5-.27.01-.27.17-.61.25-.88.11-.4.22-.8.33-1.2.39-1.4.78-2.8,1.18-4.19.31-1.09-1.38-1.55-1.69-.47-.38,1.34-.76,2.68-1.13,4.02-.17.63-.35,1.26-.52,1.89-.19.67-.25,1.31.14,1.93.57.91,1.54.91,2.49.91h30.37c1.14,0,2.29.05,3.43,0,.72-.03,1.35-.38,1.72-1.01.37-.66.22-1.32.04-2.01-.43-1.56-.86-3.11-1.31-4.66-.31-1.08-2-.62-1.69.47h0Z"/>
      <path class="cls-2" d="M41.4,84.24h17.67c1.13,0,1.13-1.75,0-1.75h-17.67c-1.13,0-1.13,1.75,0,1.75h0Z"/>
      <path class="cls-2" d="M.85,76.72h13.34c1.13,0,1.13-1.75,0-1.75H.85c-1.13,0-1.13,1.75,0,1.75h0Z"/>
      <path class="cls-2" d="M85.16,76.72h13.99c1.13,0,1.13-1.75,0-1.75h-13.99c-1.13,0-1.13,1.75,0,1.75h0Z"/>
      <path class="cls-2" d="M57.79,4.17c1.39-2.98,5.48-2.9,7.92-1.37,1.36.85,2.25,2.23,2.69,3.75.65,2.24.32,4.63.67,6.91.08.53.22,1.03.41,1.53.04.11.08.21.13.32.04.09.08.18.11.27.14.38.24.14.29-.71-.03,0,.25-.04-.01,0-.06.01-.12.03-.18.04.06,0,.05,0,0,0-1.03.11-2.16-.17-3.13-.45-1.08-.32-1.55,1.37-.47,1.69,1.11.32,6.23,1.42,5.07-1.32-1-2.37-.55-5.02-.93-7.5-.32-2.08-1.3-4.12-2.97-5.45-1.56-1.25-3.6-1.95-5.61-1.86-2.24.11-4.52,1.16-5.51,3.28-.2.43-.12.94.31,1.2.38.22,1,.12,1.2-.31h0Z"/>
      <path class="cls-2" d="M65.15,22.4c-1.97-.98-3.73-2.17-5.32-3.7-1.55-1.49-2.93-3.2-3.65-5.25-.21-.59-.99-.91-1.46-.39-1.27,1.39-2.68,2.68-4.4,3.48-.38.18-.77.31-1.17.43-.12.03-.66.22-.72.18.06.04,1.08-2.19,1.18-2.44.14-.36-.09-.81-.4-.99-.35-.21-.76-.12-1.06.14-2.11,1.81-4.41,3.38-6.77,4.84-1.35.83-2.72,1.63-4.1,2.41-.97.55-1.99,1.17-3.09,1.41s-.63,1.93.47,1.69c1.22-.27,2.36-.94,3.43-1.54,1.41-.79,2.8-1.61,4.18-2.45,2.49-1.54,4.9-3.21,7.13-5.12l-1.46-.85c-.23.61-.55,1.18-.84,1.76-.32.63-.55,1.25-.21,1.93.64,1.29,2.11.96,3.22.58,2.33-.79,4.24-2.41,5.88-4.21l-1.46-.39c.81,2.3,2.26,4.23,3.99,5.92,1.72,1.67,3.64,3.02,5.78,4.08.42.21.95.11,1.2-.31.23-.39.11-.99-.31-1.2h0Z"/>
      <path class="cls-2" d="M31.57,68.12c-.21-.37-.07-.84.31-1.04.09-.05.19-.09.28-.14.36-.17.78-.05,1,.29,1.83,2.92,9.51,16.21,11.19,19.33.09.16.03.37-.14.46h0c-.15.08-.33.03-.42-.1-1.2-1.67-11.25-17.11-12.22-18.8h0Z"/>
      <path class="cls-2" d="M32.32,67.68c.03.05-.05.32.14.09.05-.06.11-.02-.02-.04-.06-.01-.03-.04.03.06.11.18.22.36.33.54.31.51.62,1.02.92,1.54.82,1.39,1.64,2.78,2.45,4.17,1.84,3.15,3.66,6.3,5.46,9.47.39.69.78,1.37,1.16,2.06.15.26.29.52.44.78.07.12.13.24.19.35.03.05.05.1.08.15.18.27-.2-.01.03-.34l.31-.31c-.15.1-.11.09.12-.03l.44.12c.09.04.16.23.02.05-.05-.07-.1-.14-.14-.21-.12-.17-.23-.34-.34-.51-.33-.49-.66-.99-.99-1.48-.94-1.41-1.87-2.83-2.79-4.25-2.04-3.13-4.08-6.26-6.09-9.4-.59-.93-1.21-1.85-1.76-2.81-.56-.98-2.08-.1-1.51.88,1.32,2.3,2.84,4.5,4.28,6.73,2.04,3.15,4.09,6.3,6.16,9.43.57.86,1.12,1.72,1.72,2.56.39.54,1.05.87,1.68.5.68-.4.71-1.16.38-1.79-.28-.54-.59-1.06-.88-1.59-1.99-3.53-4.02-7.04-6.06-10.55-.96-1.65-1.92-3.3-2.9-4.94-.34-.57-.68-1.14-1.02-1.7-.21-.34-.4-.69-.74-.92-.71-.48-1.64-.3-2.27.24-.61.53-.69,1.33-.35,2.04.2.43.81.54,1.2.31.44-.26.52-.77.31-1.2h0Z"/>
      <path class="cls-2" d="M32.56,74.06c1.15-.17,2.37-.25,3.51.04,1.12.28,1.95.94,2.83,1.65.82.67,1.72,1.37,2.28,2.28.11.17.21.35.27.55.09.27.11.34.07.61-.04.3-.21.71-.5.89-.96.59-.08,2.1.88,1.51,1.17-.72,1.66-2.31,1.2-3.58-.49-1.35-1.6-2.36-2.68-3.25-1.14-.94-2.24-1.87-3.69-2.28-1.52-.43-3.1-.32-4.64-.09-.47.07-.73.66-.61,1.08.14.5.61.68,1.08.61h0Z"/>
      <path class="cls-2" d="M32.1,72.37c-1.86.29-3.9.78-5.34,2.07-.66.59-1.2,1.36-1.69,2.09-.55.82-1.04,1.71-1.32,2.67-.26.91-.17,1.66.39,2.43.57.77,1.22,1.44,1.63,2.32.45.98.78,2,1.39,2.9.59.87,1.36,1.55,2.23,2.14.47.32.96.69,1.52.83.56.14,1.14.05,1.66-.19.97-.45,1.64-1.54,1.33-2.62l-1.46.85c1.07.85,2.35,1.54,3.76,1.09.85-.28,2.24-1.16,1.86-2.23l-1.29.99c1.13.73,2.73,1.02,3.82.04.43-.38.73-.9.68-1.49-.05-.71-.57-1.24-1.1-1.66l-.85,1.46c.99.27,2.19.25,2.93-.58.56-.62.72-1.55.28-2.28-.4-.67-.99-1.27-1.5-1.86-.45-.52-.91-1.04-1.33-1.59-.7-.93-1.27-1.95-1.86-2.95-.57-.97-2.08-.09-1.51.88.58.99,1.13,1.99,1.82,2.91.52.69,1.08,1.33,1.64,1.99.3.35.6.7.88,1.05.02.02.23.3.12.15.04.05.08.11.12.17.04.05.07.1.1.15.08.13-.12-.09,0,.02.02.1.02.08,0-.04v.07c0,.1,0,.09,0-.03,0,.05-.02.09-.04.13.12-.17-.02.02-.04.05.18-.18-.18.17-.02.02-.25.23-.72.17-1.17.05-.78-.21-1.57.9-.85,1.46.16.13.33.26.47.41.02.03.19.21.13.16-.02-.02-.01-.11,0,.01,0-.03,0-.11.02-.13-.08.07-.12.16-.21.22-.52.34-1.23-.02-1.68-.32-.62-.4-1.54.27-1.29.99-.04-.12.08-.26.05-.37-.01-.05.05-.04-.05.05-.11.09-.12.11-.26.19-.12.07-.24.14-.37.2s.12-.04.01,0c-.08.02-.14.04-.22.06-.71.13-1.33-.27-1.86-.69-.64-.5-1.73-.06-1.46.85.03.11.03.09.01.16,0,.03-.08.15-.1.18-.15.18-.38.3-.58.32-.29.02-.53-.18-.79-.34-.36-.23-.72-.46-1.05-.73-1.37-1.13-1.77-2.74-2.54-4.26-.39-.77-.98-1.38-1.5-2.05-.07-.09-.13-.18-.19-.27-.07-.11-.13-.25-.13-.26-.03-.13-.03.17,0-.06,0,.01.01-.1,0-.08.04-.2.09-.4.15-.59.43-1.34,1.37-2.7,2.37-3.69,1.18-1.16,3.13-1.49,4.69-1.74.47-.07.73-.66.61-1.08-.14-.5-.61-.68-1.08-.61h0Z"/>
      <path class="cls-2" d="M30.17,85.85c.72.81,1.53,1.55,2.44,2.15.38.25.99.09,1.2-.31.23-.44.09-.93-.31-1.2-.19-.13-.37-.26-.55-.4l.18.14c-.62-.48-1.18-1.03-1.71-1.62-.14-.16-.41-.26-.62-.26s-.47.1-.62.26c-.34.37-.33.87,0,1.24h0Z"/>
      <path class="cls-2" d="M31.9,83.28c1.5,1.62,3.11,3.1,4.87,4.44.37.28,1,.07,1.2-.31.24-.46.08-.9-.31-1.2-.06-.04-.11-.08-.17-.13-.04-.03-.15-.11-.05-.04-.11-.08-.21-.17-.32-.25-.2-.16-.39-.32-.59-.48-.39-.32-.77-.66-1.14-1-.78-.72-1.53-1.49-2.25-2.27-.31-.34-.93-.34-1.24,0-.33.36-.33.88,0,1.24h0Z"/>
      <path class="cls-2" d="M34.18,80.86c1.57,1.87,3.23,3.62,5.05,5.25.34.31.91.36,1.24,0,.31-.33.37-.91,0-1.24-1.82-1.63-3.48-3.37-5.05-5.25-.29-.35-.94-.33-1.24,0-.34.38-.31.86,0,1.24h0Z"/>
      <path class="cls-2" d="M65.3,80.28c-.87.68-1.71,1.39-2.55,2.11-.72.62-1.47,1.23-2.14,1.9-.7.7-1.34,1.55-1.3,2.59.04,1.05.59,1.93,1.59,2.29,1.04.38,2.28.08,3.21-.45.98-.56.1-2.07-.88-1.51-.21.12-.3.16-.49.22-.13.04-.26.08-.39.11.01,0-.29.04-.17.03-.13.01-.26.01-.4.01-.18,0,.01.02-.15-.02-.04,0-.32-.11-.23-.06,0,0-.24-.14-.13-.07-.04-.03-.07-.07-.1-.1.06.08.06.07,0-.01-.07-.17,0,.07-.05-.11-.01-.04-.08-.34-.06-.23-.01-.1-.01-.2,0-.3.02-.25.29-.63.48-.84.69-.76,1.51-1.4,2.28-2.07.89-.77,1.78-1.52,2.71-2.25.37-.29.31-.93,0-1.24-.37-.37-.87-.29-1.24,0h0Z"/>
      <path class="cls-2" d="M60.2,84.65c-.21.04.18.01-.04,0-.05,0-.25-.03-.05.01-.02,0-.22-.03-.11-.02.03,0-.02-.01-.03-.02-.02-.01-.12-.15-.08-.09-.02-.03-.13-.31-.08-.14-.01-.04-.05-.26-.03-.09,0-.07,0-.14,0-.22,0-.06,0-.06,0,0l.02-.09c.02-.09.04-.19.08-.28.04-.12.13-.29.24-.44.18-.25.42-.46.64-.69,1.17-1.25,2.49-2.3,3.86-3.34.38-.29.57-.75.31-1.2-.22-.37-.82-.6-1.2-.31-1.69,1.29-3.39,2.59-4.78,4.21-.68.79-1.16,1.95-.78,2.99.4,1.1,1.39,1.63,2.52,1.4.46-.1.73-.64.61-1.08-.13-.48-.61-.71-1.08-.61h0Z"/>
      <path class="cls-2" d="M68.13,82.19c-1.12.89-2.26,1.77-3.35,2.71-1,.87-2.22,1.96-1.87,3.43.38,1.61,2.21,1.89,3.54,1.36,1.22-.48,2.2-1.45,3.26-2.2,1-.71,2.03-1.38,2.99-2.14.37-.29.31-.93,0-1.24-.37-.37-.87-.3-1.24,0-.1.08.08-.06-.08.06-.08.06-.16.12-.25.18-.19.14-.39.28-.58.42-.41.29-.82.58-1.23.86-.84.58-1.64,1.23-2.48,1.81-.45.31-.86.59-1.31.7-.34.09-.76.1-.9-.17-.04-.07-.05-.2-.03-.3.04-.17.16-.31.26-.43.38-.45.82-.84,1.27-1.22,1.05-.9,2.15-1.75,3.24-2.61.37-.29.31-.93,0-1.24-.37-.37-.87-.3-1.24,0h0Z"/>
      <path class="cls-2" d="M61.18,79.44c-.31,0-.39-.38-.34-.62.06-.33.39-.62.73-.88.91-.7,1.99-1.29,3.06-1.69,1.09-.41,2.23-.6,3.39-.67,1.18-.06,2.44-.03,3.56.39.46.17.88.42,1.29.68.47.29.61.38.97.72.65.61,1.22,1.26,1.54,2.1.41,1.07.5,2.12.24,3.23-.21.87-.67,1.56-1.29,2.19-.41.42-.85.83-1.29,1.22-.43.38-.86.8-1.37,1.08-.41.23-.83.31-1.25.16.03.01.09.02.11.06.03.07-.06-.2-.07-.26.01.13,0-.19,0-.17-.01.15.1-.27,0-.05.2-.43.12-.94-.31-1.2-.38-.22-1-.12-1.2.31-.54,1.16-.14,2.73,1.21,3.05,1.53.36,2.77-.57,3.85-1.51.98-.85,2.03-1.76,2.69-2.9.67-1.14.95-2.63.79-3.94-.17-1.43-.72-2.75-1.66-3.84-.82-.95-1.8-1.7-2.92-2.26-1.41-.71-3.02-.89-4.58-.84-1.51.05-3.03.28-4.43.85-.87.36-1.71.79-2.51,1.29-.69.43-1.38.92-1.86,1.58-1.01,1.41-.18,3.6,1.66,3.65,1.13.03,1.13-1.72,0-1.75h0Z"/>
    </g>
  </g>
</svg>