<?xml version="1.0" encoding="UTF-8"?>
<svg id="b" xmlns="http://www.w3.org/2000/svg" viewBox="0 0 101.19 120">
  <defs>
    <style>
      .cls-1 {
        fill: #211715;
      }

      .cls-2 {
        fill: #fff;
      }

      .cls-3 {
        fill: #d4f3ff;
      }
    </style>
  </defs>
  <g id="c">
    <g id="d">
      <path class="cls-2" d="M33.78,119.07h-1.2c-.24,0-.42-.22-.38-.46,1.17-5.94,2.53-12.5,3.43-17.04,0,0,.58-2.95,1.16-5.9h27.37c.7,3.47,1.41,6.93,1.41,6.93.43,2.11,2.12,10.39,3.22,16,.05.24-.14.45-.38.45h-34.64,0Z"/>
      <path class="cls-2" d="M78,60.61c-1.49-2.02-2.98-3.46-5.37-4.89-2-1.19-6.17-3.23-9.59-4.45-3.15,2.2-8.42,3.43-12.89,3.53-4.42-.1-9.65-1.31-12.8-3.46-4.31,1.49-7.37,2.71-8.58,3.33-2.62,1.32-4.35,2.63-5.96,5.52-.9,1.6-2.17,4.66-2.62,6.21-1.06,3.64-1.88,6.34-3.13,11.4-.5,2.01-1.47,6.6-1.61,9.8-.17,3.88,1.1,5.72,3.85,6.8.17.07.29.09.43.11l3.17.29c.45-1.68,1.9-3.61,2.77-4.56,1.27-1.39,3.87-2,5.66-2.28,2.49-.38,4.91-.35,7.02,1.42.36.3.81.65,1.28,1.04,7.58,0,18.78,0,26.28,0,1.34-.66,2.39-.95,3.87-1.16,1.55-.15,2.61-.18,4.16.07,1.4.22,2.39.88,3.39,1.55.61.4,1.9,1.78,2.21,2.45.22.46.39.9.52,1.34,3.45-.71,5.72-3.73,5.54-7.82-.14-3.19-.6-5.22-1.26-7.89-1.17-4.72-2-8.11-3.26-11.86-.72-2.15-1.92-4.85-2.87-6.18-.08-.11-.15-.22-.23-.32h0Z"/>
      <path class="cls-2" d="M31.33,87.97c2.49-.38,4.91-.35,7.02,1.42,1.25,1.05,3.59,2.68,3.93,4.51.14.73-.23,1.91-1,2.34l-1.75,5.08c.63.57.73,1.03.44,1.44-.39.56-.91.77-1.59.76s-1.15-.22-1.72-.6c.24.47-1.06,1.18-1.41,1.27-1.26.34-2.18-.2-3.11-.95.39,1.13-1.26,2.49-2.57,1.68-1.34-.83-2.31-1.49-3.11-2.72-.77-1.19-1.13-2.5-1.6-3.38-.75-1.48-2.21-2.42-2.08-3.39.2-1.81,1.91-4.12,2.9-5.2,1.27-1.39,3.87-2,5.66-2.28"/>
      <path class="cls-2" d="M69.91,104.07c-.21.14-.43.28-.64.39-.48.27-1.58.59-2.28.19-.43-.25-.65-.65-.69-1.08-.04.02-.06.04-.06.04-.93.55-2.44.83-3.28.09-.49-.43-.78-1.59-.2-2.43.08-.14.19-.3.33-.46-.49.19-1.4.44-1.92-.65-.35-.72-.04-1.84.83-2.68.33-.32,1.01-1.12,1.69-1.72.14-.13.29-.25.44-.38l-.61-.09c-.45.03-1-.39-1.22-.82-.19-.36-.14-.94,0-1.3.31-.83,1.72-1.75,3.18-2.52,1.56-.83,2.67-1.15,4.31-1.38,1.55-.15,2.61-.18,4.16.07,1.4.22,2.39.88,3.39,1.55.61.4,1.9,1.78,2.21,2.45.57,1.22.87,2.35.79,3.46-.14,1.83-.61,2.87-1.76,4.06-.67.69-1.83,1.75-2.58,2.35-1.05.83-2.06.94-2.8.63-.59-.25-.66-1.37-.42-1.81,0,0,.02-.04.05-.08h-.02c-.24.18-.44.32-.6.43-.54.38-1.43,1.11-2.31,1.7h0Z"/>
      <path class="cls-2" d="M35.35,26.1c-.47-.87-1.37-1.18-2.1-1.16-1.23.04-1.76.71-1.98,1.1-.68,1.17-.66,3.34-.21,4.69.32.95.83,2.41,2.09,3.45.56.46,1.4.76,2.18.56.56,1.96,1.59,4.33,3.4,6.54,1.37,1.67,2.81,2.92,4.4,3.72v1.6c0,.42,0,.87-.15,1.28-.21.53-.48.99-.93,1.35-.95.76-1.92,1.13-3.11,1.58l-1.51.59c3.16,2.12,8.34,3.32,12.73,3.42,4.45-.1,9.69-1.32,12.84-3.5-.48-.19-1.29-.51-1.29-.51-1.2-.45-2.17-.81-3.11-1.58-.45-.36-.72-.82-.93-1.35-.15-.41-.15-.86-.15-1.28v-1.95c1.44-.75,2.68-1.79,3.98-3.36,1.78-2.17,2.8-4.5,3.37-6.44.8.24,1.67-.05,2.25-.52,1.27-1.04,1.8-2.49,2.12-3.44.46-1.34.49-3.51-.17-4.69-.22-.4-.75-1.07-1.98-1.12-.85-.03-1.91.38-2.29,1.57-.26-.11-.52-.23-.78-.37-2.36-.81-4.49-3.2-5.92-5.9-.64-1.21-1.38-3.75-1.89-5.71-2.56,3.46-6,6.02-10.13,7.37-.24.08-.6.13-.85.04-.32-.15-.41-.3-.38-.72.07-1.04.49-2.77.6-3.78-2.82,2.77-5.9,5.69-8.76,8.03l-1.32.49h0Z"/>
      <path class="cls-2" d="M9.33,107.56h6.11c-.15.34-.3.68-.45,1.02-.58,1.29-1.86,2.13-3.28,2.13h-.38c-1.62,0-2.69-1.68-2-3.14h0Z"/>
      <g id="e">
        <path class="cls-3" d="M33.28,52.4h1.07c.91-.33,1.91-.68,2.99-1.06.02.02.05.03.08.05.39-.15,1.51-.59,1.51-.59,1.2-.45,2.17-.81,3.11-1.58.45-.36.72-.82.93-1.35.15-.41.15-.86.15-1.28v-1.6c-1.6-.8-3.03-2.05-4.4-3.72-1.81-2.2-2.84-4.57-3.4-6.54-.78.2-1.62-.1-2.18-.56-1.26-1.05-1.78-2.5-2.09-3.45-.45-1.34-.47-3.51.21-4.69.23-.39.75-1.06,1.98-1.1.74-.02,1.63.29,2.1,1.16l1.32-.49c2.86-2.34,5.94-5.26,8.76-8.03-.12,1.01-.54,2.73-.6,3.78-.03.42.06.56.38.72.25.09.61.04.85-.04,4.13-1.34,7.56-3.91,10.13-7.37.51,1.97,1.25,4.5,1.89,5.71,1.43,2.7,3.56,5.09,5.92,5.9.26.14.52.26.78.37.39-1.19,1.45-1.6,2.29-1.57,1.23.05,1.75.72,1.98,1.12.67,1.18.63,3.35.17,4.69-.32.95-.85,2.4-2.12,3.44-.58.47-1.45.76-2.25.52-.57,1.94-1.59,4.27-3.37,6.44-1.29,1.58-2.53,2.61-3.98,3.36v1.95c0,.42,0,.87.15,1.28.21.53.48.99.93,1.35.95.76,1.92,1.13,3.11,1.58,0,0,.81.32,1.29.51.02-.01.03-.02.05-.03,1.05.38,2.18.83,3.29,1.31h.72c2.45-.16,4.76-1.85,5.53-4.26.83-2.57-.2-5.91-.97-8.5-1.32-4.47-1.86-9-1.92-13.66.09-2.69-.1-5.87-.2-7.2-.33-4.62-2.41-9.78-5.4-12.65-1.19-1.14-1.6-1.72-2.76-2.4,0,0-.67-.39-1.34-.79-.67-.27-1.33-.54-1.33-.54-2.48-1-5.06-1.67-8.72-1.67-6.01,0-11.35,3.09-13.72,5.37-3.94,3.77-6.43,10.65-6.12,20.14,0,6.43-.53,11.07-1.27,13.71-.5,1.81-.93,4.81-.95,6.64-.02,2.22,2.04,5.14,5.4,5.62h0Z"/>
        <path class="cls-3" d="M15.97,103.09c.68,0,1.13.69.86,1.31-.38.85-.87,1.99-1.39,3.16h-6.11s.01-.03.02-.04c.75-1.53,1.53-3.09,2.01-4.02.13-.25.39-.41.82-.41h3.79Z"/>
      </g>
    </g>
    <g id="f">
      <path class="cls-1" d="M64.93,104.07c.66,3.24,1.32,6.47,1.97,9.71.18.9.36,1.8.54,2.7.09.43.17.86.25,1.29.04.18.07.37.11.55.02.11.03.24.07.34.15.39-.72-.83.54-.51-.14-.04-.35,0-.49,0h-34.71c-.18,0-.43-.04-.61,0,0,0-.01,0-.02,0h0l.54.54.03-.17c.09-.22.11-.54.15-.78.06-.32.13-.64.19-.96.21-1.05.42-2.11.63-3.16.43-2.11.85-4.22,1.28-6.33.19-.94.38-1.88.57-2.82.1-.49-.14-.99-.64-1.13-.45-.12-1.03.15-1.13.64-.87,4.31-1.75,8.61-2.61,12.92-.19.97-.78,2.53.51,2.99.18.07.37.09.56.1.29,0,.58,0,.87,0h34.09c.24,0,.49.01.73,0,.5-.02.94-.24,1.19-.69.26-.47.11-.98.01-1.47-.09-.47-.18-.94-.28-1.41-.72-3.64-1.46-7.27-2.19-10.9-.13-.65-.26-1.3-.4-1.95-.1-.49-.68-.77-1.13-.64-.51.14-.74.64-.64,1.13h0Z"/>
      <path class="cls-1" d="M41.86,96.6h21.3c1.18,0,1.19-1.84,0-1.84h-21.3c-1.18,0-1.19,1.84,0,1.84h0Z"/>
      <path class="cls-1" d="M48.38,105.54h1.93c.24,0,.48-.1.65-.27.16-.16.28-.42.27-.65-.02-.5-.4-.92-.92-.92h-1.93c-.24,0-.48.1-.65.27-.16.16-.28.42-.27.65.02.5.4.92.92.92h0Z"/>
      <path class="cls-1" d="M49.02,115.29h13.91c1.18,0,1.19-1.84,0-1.84h-13.91c-1.18,0-1.19,1.84,0,1.84h0Z"/>
      <path class="cls-1" d="M37.29,115.29h6.83c1.18,0,1.19-1.84,0-1.84h-6.83c-1.18,0-1.19,1.84,0,1.84h0Z"/>
      <path class="cls-1" d="M55.83,110.74h2.04c.24,0,.48-.1.65-.27.16-.16.28-.42.27-.65-.01-.24-.09-.48-.27-.65s-.4-.27-.65-.27h-2.04c-.24,0-.48.1-.65.27-.16.16-.28.42-.27.65.01.24.09.48.27.65s.4.27.65.27h0Z"/>
      <path class="cls-1" d="M54.2,100.86h1.77c.24,0,.48-.1.65-.27.16-.16.28-.42.27-.65-.01-.24-.09-.48-.27-.65s-.4-.27-.65-.27h-1.77c-.24,0-.48.1-.65.27-.16.16-.28.42-.27.65.01.24.09.48.27.65s.4.27.65.27h0Z"/>
      <path class="cls-1" d="M.89,91.35h14.76c1.18,0,1.19-1.84,0-1.84H.89c-1.18,0-1.19,1.84,0,1.84h0Z"/>
      <path class="cls-1" d="M85.08,91.35h15.21c1.18,0,1.19-1.84,0-1.84h-15.21c-1.18,0-1.19,1.84,0,1.84h0Z"/>
      <path class="cls-1" d="M45.15,101.88c-.3-.57-.62-1.13-.94-1.69-.82-1.45-1.64-2.9-2.47-4.34-.03-.05-.06-.11-.09-.16-1.29-2.26-2.6-4.52-3.91-6.77-.04-.07-.08-.14-.13-.21-1.05-1.81-2.11-3.61-3.18-5.42-.37-.62-.74-1.23-1.12-1.85-.22-.36-.43-.73-.78-.98-.74-.52-1.66-.34-2.35.17-.66.49-.81,1.27-.57,2,.02.08.05.17.1.25.97,1.68,2.03,3.3,3.09,4.92.52.79,1.05,1.58,1.56,2.38,2.22,3.42,4.44,6.83,6.69,10.22.09.13.18.26.26.4.54.82,1.07,1.64,1.64,2.43.41.57,1.11.95,1.8.55.72-.42.76-1.23.41-1.9Z"/>
      <path class="cls-1" d="M41.74,97.03c1.45-.91,1.81-2.8,1.12-4.29-.58-1.26-1.69-2.23-2.74-3.1-1.17-.96-2.31-1.93-3.77-2.4-1.71-.55-3.52-.43-5.26-.16-.49.07-.76.69-.64,1.13.14.53.64.72,1.13.64,1.31-.2,2.69-.28,3.98.07,1.17.32,2.04,1.03,2.96,1.77.84.68,1.76,1.4,2.37,2.3.23.34.47.73.5,1.14.04.5-.22,1.07-.58,1.3-1,.63-.08,2.22.93,1.59h0Z"/>
      <path class="cls-1" d="M29.02,101.7c.78.88,1.66,1.69,2.65,2.34.4.27,1.03.09,1.26-.33.24-.46.1-.98-.33-1.26-.21-.14-.41-.28-.6-.43l.19.14c-.68-.52-1.29-1.12-1.86-1.76-.32-.36-.98-.35-1.3,0-.35.38-.34.92,0,1.3h0Z"/>
      <path class="cls-1" d="M37.11,102.12c-.13-.1-.25-.19-.38-.29.08.06,0,0-.04-.03-.06-.05-.12-.1-.18-.14-.21-.17-.42-.34-.63-.51-.43-.36-.84-.72-1.25-1.1-.85-.78-1.65-1.61-2.44-2.46-.33-.35-.97-.36-1.3,0-.35.38-.35.92,0,1.3,1.63,1.77,3.38,3.37,5.3,4.82.39.29,1.05.07,1.26-.33.26-.48.08-.95-.33-1.26h0Z"/>
      <path class="cls-1" d="M40.18,100.66c-1.98-1.77-3.8-3.67-5.5-5.71-.31-.37-.99-.34-1.3,0-.36.39-.33.91,0,1.3,1.71,2.04,3.52,3.94,5.5,5.71.36.32.95.38,1.3,0,.32-.35.38-.96,0-1.3h0Z"/>
      <path class="cls-1" d="M35.72,92.81c.57.98,1.12,1.97,1.78,2.89.52.71,1.08,1.38,1.65,2.05.3.35.6.7.9,1.06.14.17.28.34.42.51.06.07.11.14.17.21-.11-.15.04.06.06.09.16.24.18.35-.04.52,0,0-.08.04-.14.07-.07.03-.16.04-.23.05-.3.04-.57-.05-.86-.11-.4-.08-.82.05-1.04.42-.19.32-.17.87.14,1.11.16.13.32.25.46.4.04.04.2.25.2.26-.1-.04.17-.21-.03-.05-.09.07-.14.16-.25.21-.59.31-1.31-.06-1.81-.38-.65-.42-1.62.28-1.35,1.04v-.12c.09-.27.11-.35.04-.23,0,0,.01,0-.02.02-.11.06-.12.11-.26.2-.14.09-.28.17-.43.25-.09.05-.08.03,0,0-.06.02-.11.04-.17.05-.82.19-1.52-.24-2.15-.73-.67-.53-1.82-.07-1.54.9.04.13.05.09,0,.22.04-.12-.13.21-.08.15-.16.21-.43.36-.66.39-.34.04-.61-.19-.89-.37-.38-.24-.76-.49-1.11-.77-.73-.58-1.27-1.29-1.69-2.12-.44-.85-.72-1.78-1.17-2.63-.43-.82-1.08-1.48-1.63-2.21-.09-.12-.17-.24-.25-.37-.05-.1-.07-.07-.09-.23.02.15.03-.17.04-.22.04-.21.1-.42.17-.62.28-.81.74-1.57,1.22-2.27.41-.6.86-1.21,1.38-1.71,1.29-1.23,3.39-1.6,5.09-1.87.49-.08.76-.69.64-1.13-.14-.52-.64-.72-1.13-.64-2,.31-4.14.84-5.71,2.18-.73.62-1.32,1.47-1.85,2.25-.6.87-1.12,1.82-1.44,2.83-.32,1-.28,1.87.35,2.73.6.82,1.3,1.52,1.75,2.45.53,1.09.88,2.26,1.57,3.28.63.91,1.42,1.63,2.33,2.26.52.36,1.1.8,1.72.95.59.15,1.2.07,1.76-.18,1.06-.48,1.82-1.65,1.47-2.83l-1.54.9c1.17.93,2.55,1.67,4.08,1.16.9-.3,2.38-1.25,1.97-2.38l-1.35,1.04c1.17.75,2.79,1.09,3.97.16.52-.41.92-1,.88-1.68-.05-.77-.62-1.36-1.2-1.81l-.9,1.54c.77.15,1.51.28,2.27-.02.72-.29,1.29-.89,1.43-1.67.21-1.19-.72-2.06-1.42-2.89-.6-.72-1.24-1.41-1.82-2.15-.8-1.04-1.44-2.18-2.09-3.31-.6-1.02-2.19-.1-1.59.93h0Z"/>
      <path class="cls-1" d="M68.03,95.27c-.95.74-1.86,1.51-2.77,2.3-.79.68-1.6,1.34-2.33,2.07-.76.75-1.44,1.67-1.4,2.79s.63,2.07,1.71,2.46c1.12.41,2.47.08,3.47-.49,1.03-.59.1-2.18-.93-1.59-.34.19-.8.36-1.16.4-.23.02-.47.02-.6,0-.2-.04-.35-.12-.4-.15-.04-.03-.08-.07-.11-.11.06.08.06.07,0-.02-.07-.17,0,.05-.06-.12-.08-.24-.1-.32-.08-.58.03-.31.32-.71.53-.94.75-.83,1.64-1.53,2.48-2.26.96-.84,1.94-1.66,2.95-2.45.39-.31.32-.98,0-1.3-.39-.39-.91-.31-1.3,0h0Z"/>
      <path class="cls-1" d="M62.47,100.04c-.22.05.18.01-.05,0-.04,0-.27-.02-.07.02-.02,0-.23-.04-.12-.03.03,0-.03-.02-.04-.03-.01-.01-.13-.15-.09-.1-.02-.03-.15-.32-.09-.16-.01-.04-.05-.28-.04-.11,0-.08,0-.16,0-.24,0-.06,0-.06,0,0l.02-.1c.02-.1.05-.21.08-.3.05-.15.15-.33.27-.49.2-.28.46-.51.7-.76,1.28-1.37,2.72-2.51,4.2-3.64.39-.3.6-.79.33-1.26-.23-.39-.86-.63-1.26-.33-1.84,1.4-3.69,2.82-5.2,4.58-.73.85-1.25,2.1-.84,3.22.43,1.17,1.5,1.75,2.7,1.5.49-.1.77-.67.64-1.13-.14-.5-.64-.74-1.13-.64h0Z"/>
      <path class="cls-1" d="M71.11,97.35c-1.22.97-2.46,1.93-3.65,2.95-1.08.93-2.4,2.12-2.02,3.71.41,1.74,2.38,2.03,3.82,1.46,1.32-.53,2.39-1.58,3.54-2.39,1.09-.77,2.21-1.5,3.25-2.33.39-.31.32-.98,0-1.3-.38-.38-.91-.31-1.3,0-.03.02-.13.1,0,0-.03.03-.07.05-.1.08-.09.07-.18.13-.27.2-.21.15-.42.31-.63.46-.45.32-.89.63-1.34.94-.91.64-1.78,1.34-2.7,1.97-.48.33-.93.64-1.44.77-.36.09-.84.13-1.01-.2-.05-.09-.06-.23-.03-.35.04-.19.17-.35.29-.49.41-.49.89-.91,1.38-1.33,1.15-.98,2.34-1.9,3.52-2.84.39-.31.32-.98,0-1.3-.38-.38-.91-.31-1.3,0h0Z"/>
      <path class="cls-1" d="M63.52,94.37c-.37,0-.46-.44-.41-.72.07-.39.5-.74.87-1.02,1.04-.79,2.28-1.46,3.52-1.89,1.18-.42,2.42-.6,3.66-.66s2.61,0,3.78.47c.94.38,1.82.96,2.44,1.56.7.68,1.3,1.37,1.64,2.28.43,1.14.53,2.27.25,3.46-.22.97-.73,1.73-1.42,2.43-.47.48-.96.93-1.46,1.38-.45.4-.9.83-1.42,1.12-.43.24-.98.4-1.42.19.03.01.08.02.1.05.02.03-.07-.22-.08-.29.01.12,0-.22,0-.19-.01.14.1-.29,0-.07.21-.45.13-.99-.33-1.26-.4-.23-1.05-.12-1.26.33-.59,1.26-.13,2.95,1.34,3.28,1.64.36,2.98-.65,4.14-1.67,1.06-.93,2.2-1.91,2.91-3.14.72-1.25,1.02-2.87.85-4.29-.18-1.52-.77-2.92-1.77-4.08-.87-1.01-1.89-1.81-3.08-2.43-1.51-.79-3.23-1.02-4.92-.98-1.63.04-3.3.26-4.82.86-.93.37-1.82.82-2.67,1.34-.77.46-1.57.99-2.13,1.71-.52.66-.74,1.57-.51,2.39.26.94,1.22,1.65,2.18,1.68,1.18.03,1.18-1.81,0-1.84h0Z"/>
      <path class="cls-1" d="M22.74,84.45c.09-.04.07-.03-.05.02.04-.02.08-.03.11-.05.07-.03.13-.05.2-.08.15-.05.29-.11.44-.15.28-.09.56-.17.84-.24.28-.07.55-.12.83-.17.08-.01.16-.01.23-.04-.25.07-.09.01-.01,0,.15-.02.3-.03.45-.04.48-.03.94-.4.92-.92-.02-.47-.41-.95-.92-.92-1.38.09-2.71.44-3.97.99-.2.09-.37.35-.42.55-.06.22-.03.51.09.71.13.2.32.37.55.42.26.06.47.01.71-.09h0Z"/>
      <path class="cls-1" d="M28.92,64.96c.26,4.23.59,8.46,1.21,12.65.07.49.69.76,1.13.64.53-.14.72-.64.64-1.13-.6-4.03-.9-8.1-1.15-12.16-.07-1.18-1.91-1.18-1.84,0h0Z"/>
      <path class="cls-1" d="M70.29,66.94c-.17,5.58-.84,11.1-1.43,16.64-.05.49.46.92.92.92.54,0,.87-.42.92-.92.58-5.54,1.26-11.06,1.43-16.64.04-1.18-1.8-1.18-1.84,0h0Z"/>
      <path class="cls-1" d="M39.63,91.35h26.28c1.18,0,1.19-1.84,0-1.84h-26.28c-1.18,0-1.19,1.84,0,1.84h0Z"/>
      <path class="cls-1" d="M68.77,26.17c.06,4.26.52,8.54,1.6,12.67.49,1.86,1.13,3.67,1.44,5.58.26,1.62.25,3.34-.65,4.77-.88,1.41-2.47,2.36-4.12,2.49-.5.04-.92.4-.92.92,0,.47.42.96.92.92,1.82-.14,3.55-.91,4.81-2.24,1.32-1.39,1.95-3.2,1.95-5.11,0-2.04-.56-4.06-1.14-6-.62-2.12-1.14-4.26-1.47-6.44-.38-2.5-.55-5.03-.58-7.55-.02-1.18-1.86-1.19-1.84,0h0Z"/>
      <path class="cls-1" d="M68.79,25.36c0,.27-.01.54-.02.8,0,.13.02.24.08.35.04.11.1.21.19.3.08.09.18.15.3.19.11.06.23.08.35.08l.24-.03c.16-.04.29-.12.41-.24l.14-.19c.08-.14.12-.3.13-.46,0-.27.02-.54.02-.8,0-.13-.02-.24-.08-.35-.04-.11-.1-.21-.19-.3-.08-.09-.18-.15-.3-.19-.11-.06-.23-.08-.35-.08l-.24.03c-.16.04-.29.12-.41.24l-.14.19c-.08.14-.12.3-.13.46h0Z"/>
      <path class="cls-1" d="M31.01,26.43c-.01-.37-.02-.74-.02-1.1,0-.24-.1-.48-.27-.65-.08-.09-.18-.15-.3-.19-.11-.06-.23-.08-.35-.08-.24.01-.48.09-.65.27-.16.18-.27.4-.27.65,0,.37.01.74.02,1.1,0,.24.1.48.27.65.08.09.18.15.3.19.11.06.23.08.35.08.24-.01.48-.09.65-.27.16-.18.28-.4.27-.65h0Z"/>
      <path class="cls-1" d="M33.53,51.51c-1.71-.26-3.23-1.19-4.11-2.7-.34-.58-.58-1.27-.61-1.85-.04-.92.08-1.86.19-2.77.21-1.71.66-3.34,1.01-5.02.35-1.65.55-3.34.7-5.02.23-2.57.3-5.15.3-7.73,0-1.18-1.84-1.19-1.84,0,0,4.11-.09,8.34-.96,12.36-.16.75-.38,1.48-.54,2.23-.23,1.1-.4,2.21-.53,3.33-.11.92-.25,1.89-.16,2.82.08.86.35,1.67.76,2.43,1.08,1.96,3.09,3.35,5.3,3.69.49.08.99-.12,1.13-.64.12-.44-.15-1.06-.64-1.13h0Z"/>
      <path class="cls-1" d="M34.14,33.81c.68,3.06,2.08,5.92,4.1,8.31,1.97,2.34,4.53,4.22,7.61,4.7.49.08.99-.12,1.13-.64.12-.44-.15-1.06-.64-1.13-2.81-.43-5-2.09-6.8-4.22-1.81-2.15-3.02-4.76-3.62-7.5-.26-1.16-2.03-.67-1.77.49h0Z"/>
      <path class="cls-1" d="M64.29,33.32c-.56,2.54-1.64,4.97-3.24,7.03-.8,1.03-1.74,2.02-2.82,2.77-1,.69-2.09,1.18-3.23,1.56-1.12.37-.64,2.14.49,1.77,1.29-.42,2.55-.97,3.67-1.74,1.22-.85,2.27-1.9,3.19-3.06,1.81-2.29,3.08-4.99,3.71-7.84.25-1.15-1.52-1.65-1.77-.49h0Z"/>
      <path class="cls-1" d="M66,26.35c.39-.35.93-.43,1.43-.31.2.05.38.13.54.25-.08-.06.11.11.11.11.19.2-.07-.13.06.07.55.8.54,1.93.46,2.85-.08.94-.41,1.88-.86,2.71-.44.84-1.31,2.12-2.43,1.97-.49-.07-.99.12-1.13.64-.12.43.15,1.06.64,1.13,2.87.39,4.53-2.34,5.29-4.72.62-1.94.66-5.01-1.19-6.33-1.28-.92-3.1-.71-4.24.31-.89.79.42,2.09,1.3,1.3h0Z"/>
      <path class="cls-1" d="M35.61,24.93c-1.05-.95-2.57-1.18-3.86-.56-.93.45-1.48,1.36-1.73,2.34-.56,2.24-.01,4.8,1.24,6.71.86,1.31,2.23,2.49,3.9,2.28.49-.06.92-.38.92-.92,0-.45-.42-.98-.92-.92-1.23.16-2.05-.86-2.59-1.84-.46-.84-.8-1.81-.89-2.77s-.07-2.05.46-2.89c.04-.05.03-.04-.03.03.03-.03.06-.07.08-.1.02-.02.21-.2.14-.14.16-.13.35-.2.55-.25.5-.12,1.04-.02,1.42.33.88.79,2.18-.5,1.3-1.3h0Z"/>
      <path class="cls-1" d="M36.97,52.2c2.99,1.98,6.67,2.87,10.18,3.31,3.67.46,7.41.04,10.95-1,1.86-.55,3.71-1.28,5.32-2.38.98-.66.06-2.25-.93-1.59-2.72,1.84-6.12,2.72-9.35,3.13-3.48.44-6.96.07-10.32-.89-1.73-.5-3.42-1.16-4.92-2.16-.99-.66-1.91.94-.93,1.59h0Z"/>
      <path class="cls-1" d="M42.33,45.14c0,.39,0,.79-.03,1.18-.01.25-.03.51-.06.76-.01.11-.02.13-.05.29-.02.07-.04.14-.06.21-.04.11-.05.14-.02.07-.08.21-.2.41-.33.6-.06.09-.07.1-.03.04-.04.05-.09.1-.13.14-.07.07-.14.14-.22.2.05-.03.03-.02-.06.05-.06.04-.11.08-.17.12-.11.08-.23.15-.34.22-.2.12-.4.23-.61.33-.94.46-2.1.85-3.16,1.27-.46.18-.78.62-.64,1.13.12.44.67.83,1.13.64,1.29-.51,2.65-.94,3.87-1.59.51-.27,1.02-.6,1.44-1,.45-.42.75-.97.98-1.54.38-.95.33-2.1.34-3.12,0-.5-.42-.92-.92-.92s-.92.42-.92.92h0Z"/>
      <path class="cls-1" d="M56.46,45.14c0,1.01-.04,2.17.34,3.12.23.57.53,1.11.98,1.54.42.4.93.73,1.44,1,1.22.65,2.58,1.08,3.87,1.59.46.18,1.01-.2,1.13-.64.14-.52-.18-.95-.64-1.13-1.06-.42-2.23-.81-3.16-1.27-.21-.1-.41-.21-.61-.33-.12-.07-.23-.14-.34-.22-.06-.04-.11-.08-.17-.12-.09-.07-.11-.08-.06-.05-.08-.06-.15-.13-.22-.2-.05-.05-.09-.09-.13-.14.04.06.03.05-.03-.04-.13-.19-.24-.39-.33-.6.03.07.02.05-.02-.07-.02-.07-.04-.14-.06-.21-.04-.16-.04-.18-.05-.29-.03-.25-.04-.5-.06-.76-.02-.39-.03-.79-.03-1.18,0-.5-.42-.92-.92-.92s-.92.42-.92.92h0Z"/>
      <path class="cls-1" d="M80.85,95.44c3.55-1.04,5.63-4.31,5.7-7.92.09-4.22-1.19-8.42-2.22-12.47-1-3.97-2.05-7.99-3.75-11.73-1.61-3.53-4.15-6.4-7.49-8.39-3.37-2.01-7.02-3.45-10.66-4.87-.46-.18-1.01.2-1.13.64-.14.52.18.95.64,1.13,3.12,1.21,6.19,2.47,9.14,4.07,2.99,1.62,5.57,3.83,7.19,6.87,1.78,3.33,2.8,7.04,3.75,10.67.54,2.04,1.04,4.1,1.55,6.15.44,1.77.83,3.56,1,5.38.19,1.93.3,3.93-.61,5.7-.75,1.47-2.02,2.52-3.61,2.99-1.13.33-.65,2.11.49,1.77h0Z"/>
      <path class="cls-1" d="M19.97,93.62c-.65-.12-1.47-.58-1.91-.93-.57-.45-.9-.87-1.21-1.52-.67-1.42-.55-3.34-.39-4.94.38-3.9,1.33-7.74,2.33-11.52.48-1.83.99-3.65,1.52-5.47.49-1.69.97-3.38,1.63-5.02.69-1.73,1.46-3.46,2.54-4.98,1.04-1.46,2.43-2.53,4-3.38,3.17-1.73,6.74-2.74,10.19-4.02.47-.17.78-.62.64-1.13-.12-.45-.66-.82-1.13-.64-3.27,1.21-6.65,2.22-9.78,3.76-1.68.83-3.3,1.86-4.56,3.28-1.36,1.53-2.28,3.35-3.09,5.21-1.54,3.54-2.51,7.31-3.51,11.03-1.07,4.01-2.06,8.04-2.55,12.17-.25,2.16-.4,4.47.52,6.5.35.77.88,1.46,1.54,1.99.76.61,1.75,1.23,2.72,1.4.49.09.99-.13,1.13-.64.12-.44-.15-1.04-.64-1.13h0Z"/>
      <path class="cls-1" d="M47.25,39.81c.95.51,1.98.72,3.06.72,1.12,0,2.22-.24,3.11-.94.38-.3.34-.99,0-1.3-.4-.37-.9-.32-1.3,0,.28-.22.1-.07.02-.03-.06.04-.12.07-.18.11-.08.04-.3.11-.03.03-.09.03-.17.07-.25.09-.23.08-.47.12-.71.16.13-.02.07,0-.03,0-.07,0-.14.01-.21.02-.17.01-.34.02-.51.01-.15,0-.3,0-.45-.02-.07,0-.14-.01-.21-.02-.04,0-.29-.05-.06,0-.22-.04-.45-.08-.67-.15-.09-.03-.18-.06-.28-.09-.22-.08.17.08-.03-.01-.11-.05-.23-.11-.34-.17-.42-.23-1.02-.12-1.26.33-.23.43-.12,1.02.33,1.26h0Z"/>
      <path class="cls-1" d="M49.77,32.64c.13.5.25,1.01.33,1.52l-.03-.24c0,.07.01.14,0,.21l.03-.24s-.01.06-.02.09l.09-.22s-.02.04-.03.06l.14-.19s-.03.03-.05.05l.19-.14s-.08.04-.12.06l.22-.09c-.07.03-.13.05-.2.06l.24-.03c-.06,0-.13,0-.19,0l.24.03c-.07,0-.14-.03-.21-.04-.12-.04-.24-.04-.37-.02-.12,0-.24.04-.34.11-.19.11-.37.33-.42.55-.05.24-.04.5.09.71.12.19.32.39.55.42.18.02.34.07.52.08.28.01.54-.07.79-.19.31-.14.56-.43.64-.77.07-.29.04-.53,0-.81-.08-.49-.19-.97-.32-1.46-.06-.22-.23-.43-.42-.55s-.49-.16-.71-.09c-.48.16-.77.63-.64,1.13h0Z"/>
      <path class="cls-1" d="M41.95,28.3c-.25.82-.09,2.72,1.46,2.88,2.05-.01,2.16-2.31,1.47-3.39-.56-.88-2.22-1.25-2.93.5Z"/>
      <path class="cls-1" d="M58.34,28.3c.25.82.09,2.72-1.46,2.88-2.05-.01-2.16-2.31-1.47-3.39.56-.88,2.22-1.25,2.93.5Z"/>
      <path class="cls-1" d="M10.56,103.03c-.54,1.05-1.07,2.11-1.59,3.17-.27.54-.6,1.09-.71,1.69-.1.55-.08,1.12.12,1.64.38,1,1.23,1.81,2.3,2.02.98.18,2.02.05,2.93-.36,1.07-.47,1.82-1.37,2.29-2.42.52-1.17,1.03-2.33,1.55-3.5.26-.59.51-1.15.3-1.81-.2-.59-.68-1.07-1.29-1.24-.46-.12-1-.07-1.47-.07h-2.26c-.84,0-1.69.05-2.17.87-.6,1.02.99,1.95,1.59.93.12-.21-.02.05-.03.03l-.04.02c-.07,0-.03-.01.1,0,.02,0,.05,0,.07,0,.16,0,.32,0,.48,0h3.06c.05,0,.1,0,.15,0,.11,0-.18-.08.08.01-.17-.06.14.1-.02,0-.07-.04-.03.01.01.03l-.02-.05c.03.11.03.12,0,.03,0-.12-.02.07-.04.11-.39.98-.86,1.95-1.28,2.91-.35.79-.67,1.68-1.29,2.16-.6.47-1.21.58-1.93.57-.6,0-.99-.2-1.27-.7,0-.02-.08-.16-.02-.03-.05-.11-.08-.23-.11-.35-.06-.24-.02.12-.01-.13,0-.04.03-.37,0-.23.08-.48.37-.91.61-1.4.49-1,.99-1.99,1.5-2.98.23-.44.11-1-.33-1.26-.41-.24-1.03-.11-1.26.33h0Z"/>
      <path class="cls-1" d="M9.96,108.48h5.29c.48,0,.94-.42.92-.92s-.4-.92-.92-.92h-5.29c-.48,0-.94.42-.92.92s.4.92.92.92h0Z"/>
      <path class="cls-1" d="M60.86,4.71c.58.35,1.07.77,1.56,1.25.58.57,1.18,1.13,1.72,1.74,1.02,1.16,1.83,2.51,2.48,3.91,1.31,2.78,1.88,5.75,2.04,8.8.11,1.92.16,3.84.1,5.76-.04,1.18,1.8,1.18,1.84,0,.06-1.81,0-3.62-.09-5.43-.08-1.53-.19-3.05-.49-4.56-.67-3.37-2.06-6.69-4.24-9.36-.59-.72-1.27-1.35-1.93-2.01-.64-.64-1.3-1.22-2.08-1.68-1.02-.61-1.95.98-.93,1.59h0Z"/>
      <path class="cls-1" d="M58.9,1.71C55.84.47,52.56-.11,49.26.02c-3.45.13-6.85,1.19-9.86,2.87-2.22,1.24-4.16,2.82-5.67,4.88-1.58,2.15-2.65,4.67-3.36,7.24-1.02,3.71-1.31,7.6-1.19,11.43.04,1.18,1.88,1.19,1.84,0-.18-5.74.52-11.94,3.7-16.88,1.19-1.84,2.76-3.33,4.63-4.51,2.6-1.63,5.59-2.77,8.65-3.1,3.55-.38,7.11.2,10.4,1.53.46.19,1.01-.2,1.13-.64.14-.53-.18-.95-.64-1.13h0Z"/>
      <path class="cls-1" d="M55.39,15.26c.68,2.56,1.42,5.09,2.93,7.3,1.44,2.1,3.42,4.12,5.98,4.76,1.15.29,1.64-1.49.49-1.77-2.18-.54-3.86-2.36-5.06-4.18-1.32-2.01-1.96-4.29-2.57-6.59-.3-1.14-2.08-.66-1.77.49h0Z"/>
      <path class="cls-1" d="M55.39,14.19c-1.72,2.31-3.93,4.24-6.47,5.61-.64.34-1.29.65-1.96.92-.33.13-.66.25-1,.36-.03,0-.47.09-.47.1.06-.07.34.29.25.25.02.08.03.05.02-.09,0-.08.01-.16.02-.23.01-.14.03-.27.05-.41.05-.34.11-.68.18-1.01.13-.7.27-1.41.35-2.12.1-.83-1.05-1.16-1.57-.65-2.83,2.78-5.7,5.52-8.76,8.03-.38.32-.33.97,0,1.3.38.38.92.32,1.3,0,3.07-2.51,5.94-5.26,8.76-8.03l-1.57-.65c-.14,1.15-.5,2.44-.6,3.66-.05.67.17,1.26.78,1.6.69.38,1.49.13,2.18-.12,2.57-.92,4.93-2.32,6.98-4.14,1.16-1.03,2.19-2.2,3.12-3.45.3-.4.06-1.03-.33-1.26-.47-.27-.96-.07-1.26.33h0Z"/>
    </g>
  </g>
</svg>