<?xml version="1.0" encoding="UTF-8"?>
<svg id="b" xmlns="http://www.w3.org/2000/svg" viewBox="0 0 100 115.4">
  <defs>
    <style>
      .cls-1 {
        fill: #211715;
      }

      .cls-2 {
        fill: #fff;
      }

      .cls-3 {
        fill: #f9dada;
      }
    </style>
  </defs>
  <g id="c">
    <g id="d">
      <path class="cls-2" d="M33.99,114.52h-1.14c-.23,0-.4-.21-.36-.43,1.11-5.65,2.41-11.9,3.26-16.23,0,0,.55-2.81,1.11-5.61h26.07c.67,3.3,1.34,6.6,1.34,6.6.41,2.01,2.02,9.89,3.06,15.24.04.23-.13.43-.36.43h-32.98,0Z"/>
      <path class="cls-2" d="M31.66,84.89c-1.7.26-4.18.85-5.39,2.17-.94,1.02-2.57,3.23-2.76,4.95,0,.04,0,.08,0,.12-1.88-.59-3.95-1.24-3.95-1.24-2.89-1.24-5.26-3.87-5.1-7.56.13-3.04.96-6.37,1.45-8.27,1.49-5.86,4.2-14.69,5.59-16.93,1.53-2.47,3.9-4.65,6.4-5.91,2.6-1.31,5.42-2.49,8.9-3.64.28-.09.56-.19.84-.3.03.02.04.04.04.04,2.63,2.06,7.23,3.69,12.02,3.71,4.79-.01,9.39-1.65,12.02-3.71,0,0,.03-.03.08-.07.64.23,1.29.47,1.73.64,3.2,1.23,6.17,2.36,8.85,3.79,2.46,1.32,4.6,3.23,6.16,5.68.84,1.31,2.11,4.38,2.59,5.83,1.1,3.34,2.04,7.02,3.31,11.54.53,1.89,1.06,4.64,1.2,7.68.16,3.69-2.07,6.73-5.07,7.59l-3.16.9c-.13-.49-.32-1-.56-1.52-.3-.64-1.53-1.95-2.11-2.34-.96-.64-1.9-1.26-3.23-1.47-1.48-.24-2.49-.21-3.97-.06-1.11.15-1.96.36-2.89.74-7.14,0-17.84,0-25.09,0-.45-.37-.88-.71-1.22-1-2.02-1.69-4.32-1.72-6.69-1.35"/>
      <path class="cls-2" d="M64.41,24.88c.48-.46,1.12-.63,1.67-.61,1.2.05,1.7.7,1.92,1.09.65,1.15.61,3.26.17,4.56-.31.92-.83,2.34-2.06,3.34-.56.46-1.41.74-2.19.51-.55,1.89-1.55,4.16-3.28,6.26-1.26,1.53-2.46,2.54-3.87,3.27,0,.14,0,.29,0,.44,0,.41,0,.85.15,1.24.2.52.47.97.91,1.32.92.74,1.87,1.1,3.03,1.53l.97.38c-2.62,2.1-7.27,3.77-12.13,3.79-4.82-.01-9.45-1.67-12.07-3.75.47-.18,1.08-.43,1.08-.43,1.16-.44,2.11-.79,3.03-1.53.43-.35.7-.8.91-1.32.15-.39.15-.84.15-1.24,0,0,0-.03,0-.09-1.55-.78-2.95-2-4.28-3.62-1.76-2.14-2.76-4.45-3.31-6.36-.76.19-1.58-.09-2.12-.55-1.22-1.02-1.73-2.43-2.04-3.36-.43-1.31-.45-3.42.21-4.56.22-.38.73-1.03,1.93-1.07.55-.02,1.19.16,1.67.62,0,0-6.5-15.5,15.52-15.5s14.04,15.61,14.04,15.61h0Z"/>
      <path class="cls-2" d="M10.71,103.55h5.82c-.14.32-.28.65-.43.97-.55,1.23-1.77,2.03-3.12,2.03h-.37c-1.54,0-2.56-1.6-1.91-2.99h0Z"/>
      <path class="cls-2" d="M31.66,84.89c2.37-.36,4.67-.34,6.69,1.35,1.19,1,3.42,2.55,3.74,4.29.13.69-.22,1.82-.96,2.23l-1.67,4.83c.6.55.69.98.42,1.37-.37.53-.87.73-1.52.72s-1.1-.21-1.64-.57c.23.45-1.01,1.13-1.34,1.21-1.2.32-2.07-.19-2.96-.91.37,1.08-1.2,2.37-2.45,1.6-1.28-.79-2.2-1.42-2.96-2.59-.74-1.13-1.08-2.38-1.53-3.22-.71-1.41-2.11-2.3-1.98-3.23.19-1.72,1.82-3.92,2.76-4.95,1.21-1.32,3.69-1.91,5.39-2.17"/>
      <path class="cls-2" d="M67.66,100.59c-.2.14-.41.26-.61.38-.46.26-1.51.56-2.17.18-.41-.23-.62-.62-.66-1.03-.04.02-.06.03-.06.03-.89.52-2.32.79-3.12.09-.46-.41-.74-1.51-.19-2.32.08-.14.18-.28.31-.44-.46.18-1.33.42-1.83-.62-.33-.69-.04-1.75.79-2.55.31-.3.96-1.07,1.61-1.63.14-.12.28-.24.42-.36l-.58-.09c-.43.03-.95-.37-1.16-.78-.18-.35-.13-.89,0-1.23.29-.79,1.64-1.67,3.03-2.4,1.49-.79,2.54-1.1,4.11-1.32,1.47-.15,2.49-.17,3.97.06,1.34.21,2.28.83,3.23,1.47.58.38,1.81,1.69,2.11,2.34.54,1.16.83,2.24.75,3.29-.14,1.75-.59,2.73-1.68,3.87-.63.66-1.74,1.67-2.46,2.23-1,.79-1.97.9-2.67.6-.56-.24-.63-1.3-.4-1.72,0,0,.02-.04.04-.08h-.02c-.22.17-.42.31-.57.41-.51.36-1.36,1.06-2.2,1.62h0Z"/>
      <g id="e">
        <path class="cls-3" d="M17.03,99.29c.65,0,1.08.66.82,1.25-.36.81-.83,1.9-1.32,3.01h-5.82s.01-.03.02-.04c.72-1.46,1.46-2.94,1.92-3.83.12-.24.37-.39.78-.39h3.61Z"/>
        <path class="cls-3" d="M61.94,24.07c-.8-1.85-2.44-3.84-4.14-5.32-1.04-.9-1.76-1.3-2.71-1.72,0,0-.87-.35-2.54-.53-.24.09-.4.16-.4.16-1.98.84-4.77,2.61-6.34,3.49-.37.21-.81-.12-.76-.58.03-.3.03-.62-.07-1.04-.1-.43-.44-.62-.69-.48-2.2,1.16-5.33,4.17-7.1,6.16l-2.35.66c-.48-.46-1.12-.64-1.67-.62-.31,0-.58.06-.81.14-2.06-6.59-.4-13.5,4.06-17.41-.23-.3-.4-.51-.4-.51,2.2-2.81,7.17-5.82,13.91-5.59,5.89.26,9.77,2.28,11.87,6.05,5.43,3.16,6.59,11.26,5.11,17.5-.23-.09-.51-.15-.84-.16-.55-.02-1.19.15-1.67.61l-2.36-.54c-.04-.09-.07-.18-.11-.27h0Z"/>
      </g>
    </g>
    <g id="f">
      <path class="cls-1" d="M11.88,99.24c-.52,1-1.02,2.01-1.52,3.02-.25.52-.57,1.04-.68,1.61-.1.52-.07,1.07.12,1.56.36.95,1.17,1.73,2.19,1.92.93.18,1.93.04,2.79-.34,1.02-.45,1.74-1.31,2.18-2.31.49-1.11.98-2.22,1.47-3.33.25-.56.49-1.1.28-1.72-.19-.57-.65-1.02-1.23-1.18-.44-.12-.95-.06-1.4-.06h-2.15c-.8,0-1.6.05-2.06.82-.57.97.94,1.86,1.51.88.12-.2-.02.04-.03.03l-.04.02c-.06,0-.03,0,.1,0,.02,0,.04,0,.07,0,.15,0,.31,0,.46,0h2.91s.1,0,.15,0c.1,0-.17-.08.07.01-.16-.06.13.09-.02,0-.07-.04-.03.01.01.03l-.02-.05c.03.1.03.11,0,.03,0-.11-.02.06-.04.11-.37.94-.82,1.85-1.22,2.77-.33.75-.64,1.6-1.23,2.05-.57.45-1.15.55-1.83.55-.57,0-.94-.19-1.21-.67,0-.02-.07-.15-.02-.03-.05-.11-.07-.22-.1-.34-.06-.23-.02.11-.01-.12,0-.04.03-.35,0-.22.08-.46.35-.86.58-1.33.47-.95.94-1.89,1.43-2.83.22-.42.11-.95-.31-1.2-.39-.23-.98-.11-1.2.31h0Z"/>
      <path class="cls-1" d="M11.31,104.43h5.04c.46,0,.9-.4.88-.88s-.39-.88-.88-.88h-5.04c-.46,0-.9.4-.88.88s.39.88.88.88h0Z"/>
      <path class="cls-1" d="M38.78,88.12h26.07c1.13,0,1.13-1.75,0-1.75h-26.07c-1.13,0-1.13,1.75,0,1.75h0Z"/>
      <path class="cls-1" d="M60.02,48.49c1.56.65,3.18,1.18,4.75,1.79,1.99.77,3.98,1.55,5.9,2.49,1.72.84,3.33,1.81,4.72,3.13,1.24,1.18,2.28,2.54,3.04,4.07,1.51,3.02,2.46,6.24,3.37,9.48.57,2.02,1.11,4.05,1.68,6.07.51,1.82.9,3.66,1.1,5.54.22,2.03.4,4.09-.57,5.97-.77,1.49-2.06,2.64-3.67,3.12-1.08.32-.62,2.01.47,1.69,3.55-1.04,5.76-4.53,5.72-8.15-.05-4.39-1.34-8.57-2.5-12.76-.98-3.55-1.94-7.09-3.43-10.46-.73-1.65-1.58-3.15-2.76-4.53-1.3-1.53-2.89-2.83-4.63-3.82-2.17-1.24-4.52-2.18-6.84-3.09-1.95-.76-3.94-1.43-5.88-2.23-.44-.18-.96.2-1.08.61-.14.5.17.9.61,1.08h0Z"/>
      <path class="cls-1" d="M39.1,46.8c-2.18.77-4.38,1.51-6.53,2.36-1.95.77-3.94,1.59-5.76,2.63-1.87,1.07-3.54,2.53-4.88,4.21-.93,1.17-1.6,2.36-2.16,3.73-1.35,3.27-2.36,6.69-3.34,10.08-1.08,3.74-2.16,7.53-2.66,11.4-.29,2.27-.29,4.49.87,6.53,1,1.75,2.64,3.09,4.47,3.89.43.19.94.13,1.2-.31.22-.37.12-1.01-.31-1.2-1.46-.63-2.79-1.59-3.65-2.95-.98-1.54-1.1-3.21-.93-4.99.34-3.7,1.41-7.35,2.42-10.92.96-3.38,1.97-6.77,3.22-10.06.4-1.06.75-1.98,1.4-2.97,1.1-1.68,2.57-3.17,4.23-4.3,1.79-1.22,3.85-2.08,5.85-2.89,2.31-.94,4.69-1.74,7.04-2.56.45-.16.74-.6.61-1.08-.12-.43-.63-.77-1.08-.61h0Z"/>
      <path class="cls-1" d="M22.23,81.18c.19-.1.39-.2.59-.29.09-.04.18-.08.26-.12.06-.02.05-.02-.02,0,.05-.02.1-.04.15-.06.38-.16.77-.29,1.17-.42.75-.23,1.52-.41,2.29-.52.46-.06.74-.67.61-1.08-.16-.5-.59-.68-1.08-.61-1.69.23-3.35.79-4.86,1.57-.41.21-.56.82-.31,1.2.27.42.76.54,1.2.31h0Z"/>
      <path class="cls-1" d="M27.06,63.69c.24,3.68.61,7.34.86,11.02.03.47.38.88.88.88.45,0,.91-.4.88-.88-.25-3.67-.62-7.34-.86-11.02-.03-.47-.38-.88-.88-.88-.45,0-.91.4-.88.88h0Z"/>
      <path class="cls-1" d="M70.98,64.81c-.32,5.95-.79,11.88-1.15,17.83-.07,1.13,1.68,1.12,1.75,0,.36-5.94.83-11.88,1.15-17.83.06-1.13-1.69-1.12-1.75,0h0Z"/>
      <path class="cls-1" d="M55.89,43.31c0,.55-.02,1.1.1,1.64.1.48.35.96.64,1.35.61.82,1.54,1.37,2.46,1.78,1.02.45,2.08.83,3.12,1.24.43.17.98-.18,1.08-.61.11-.5-.15-.9-.61-1.08-.86-.34-1.72-.66-2.58-1.01-.1-.04-.11-.05-.04-.02-.04-.02-.08-.04-.12-.05-.1-.04-.19-.09-.28-.13-.19-.09-.37-.19-.55-.29-.38-.22-.66-.4-.92-.68-.12-.13-.16-.19-.27-.4-.02-.03-.15-.31-.11-.2-.04-.09-.07-.18-.09-.27-.05-.19-.05-.28-.06-.54,0-.24,0-.48,0-.73,0-.46-.4-.9-.88-.88s-.88.39-.88.88h0Z"/>
      <path class="cls-1" d="M41.92,43.65c0,.49.03.77-.15,1.19.05-.12-.05.1-.06.12-.05.11-.12.2-.18.31-.12.2.08-.07-.08.1-.08.09-.17.17-.26.25-.18.16-.58.41-.88.58-.38.21-.71.35-1.02.48-.8.32-1.61.62-2.41.94-.44.17-.75.59-.61,1.08.12.42.63.79,1.08.61.99-.39,1.98-.75,2.96-1.17.84-.36,1.77-.83,2.38-1.53.36-.41.62-.88.8-1.39.18-.5.18-1.05.18-1.57,0-.46-.4-.9-.88-.88s-.88.39-.88.88h0Z"/>
      <path class="cls-1" d="M36.65,7.09c1.95-2.46,4.9-4.01,7.91-4.78,2.06-.53,4.19-.67,6.31-.5,1.78.14,3.59.48,5.24,1.19,1.58.67,3.04,1.71,4.09,3.08.29.37.75.57,1.2.31.37-.22.6-.82.31-1.2-1.08-1.41-2.42-2.57-4.01-3.38-1.81-.92-3.78-1.41-5.79-1.65-4.24-.52-8.66.17-12.4,2.29-1.54.87-3,2-4.1,3.4-.29.37-.36.88,0,1.24.3.3.94.37,1.24,0h0Z"/>
      <path class="cls-1" d="M46.81,38.91c.92.49,1.92.7,2.96.69,1.08,0,2.15-.23,3.01-.9.36-.28.32-.94,0-1.24-.38-.35-.85-.3-1.24,0,.27-.21.09-.07.02-.02-.06.04-.12.07-.18.1-.08.04-.29.1-.04.03-.08.02-.16.06-.25.09-.23.07-.46.12-.69.16.13-.02.05,0-.03,0-.07,0-.14.01-.2.02-.16.01-.33.01-.49.01-.15,0-.29,0-.44-.02-.07,0-.13-.01-.2-.02-.03,0-.28-.05-.06,0-.22-.04-.43-.08-.65-.14-.09-.03-.18-.06-.27-.09-.21-.07.16.08-.03-.01-.11-.05-.22-.11-.33-.17-.4-.22-.97-.12-1.2.31-.21.41-.12.97.31,1.2h0Z"/>
      <path class="cls-1" d="M49.27,31.95c.13.49.25.98.32,1.48l-.03-.23c0,.07.01.14,0,.2l.03-.23s-.01.06-.02.09l.09-.21s-.02.04-.03.06l.14-.18s-.03.03-.05.05l.18-.14s-.08.04-.12.06l.21-.09c-.06.03-.13.05-.2.06l.23-.03c-.06,0-.12,0-.18,0l.23.03c-.07,0-.14-.03-.21-.04-.12-.04-.23-.04-.35-.02-.12,0-.23.04-.33.1-.18.11-.36.31-.4.52-.05.22-.04.48.09.67.11.18.3.37.52.4.17.02.33.07.5.07.27.01.52-.07.76-.18.3-.14.53-.41.61-.74.07-.27.04-.5,0-.78-.08-.48-.19-.95-.31-1.42-.06-.21-.21-.41-.4-.52s-.46-.16-.67-.09c-.46.15-.74.6-.61,1.08h0Z"/>
      <path class="cls-1" d="M41.64,27.73c-.24.8-.09,2.65,1.42,2.81,1.99-.01,2.1-2.24,1.43-3.29-.55-.86-2.16-1.22-2.85.49Z"/>
      <path class="cls-1" d="M57.59,27.73c.24.8.09,2.65-1.42,2.81-1.99-.01-2.1-2.24-1.43-3.29.55-.86,2.16-1.22,2.85.49h0Z"/>
      <path class="cls-1" d="M34.07,32.77c.66,2.99,2.04,5.79,4.03,8.13,1.91,2.25,4.38,4.05,7.35,4.51.47.07.94-.12,1.08-.61.11-.42-.14-1.01-.61-1.08-2.71-.42-4.84-2-6.58-4.06-1.79-2.11-2.98-4.67-3.57-7.36-.24-1.1-1.93-.63-1.69.47h0Z"/>
      <path class="cls-1" d="M63.39,32.3c-.55,2.48-1.6,4.85-3.16,6.85-.77.99-1.66,1.93-2.69,2.66-.98.69-2.06,1.18-3.2,1.55-1.07.35-.61,2.04.47,1.69,1.27-.42,2.52-.95,3.62-1.73,1.16-.82,2.16-1.82,3.04-2.93,1.76-2.23,3-4.85,3.61-7.63.24-1.1-1.45-1.57-1.69-.47h0Z"/>
      <path class="cls-1" d="M65.03,25.5c.34-.31.8-.4,1.25-.34.23.04.45.11.64.25-.06-.04.3.32.18.16.56.74.56,1.86.5,2.74-.07.95-.4,1.9-.84,2.74-.44.82-1.29,2.07-2.38,1.92-.47-.06-.94.11-1.08.61-.11.41.14,1.01.61,1.08,2.79.38,4.42-2.31,5.14-4.63.6-1.91.61-4.89-1.24-6.14-1.23-.83-2.95-.61-4.02.36-.84.75.4,1.99,1.24,1.24h0Z"/>
      <path class="cls-1" d="M37.06,48.92c2.68,2.07,6.03,3.24,9.36,3.71,3.76.53,7.62.16,11.18-1.16,1.7-.63,3.3-1.44,4.74-2.55.37-.29.3-.93,0-1.24-.37-.37-.86-.29-1.24,0-2.4,1.85-5.55,2.82-8.51,3.25-3.4.49-6.9.08-10.12-1.07-1.47-.52-2.93-1.22-4.17-2.18-.37-.29-.87-.36-1.24,0-.3.3-.38.95,0,1.24h0Z"/>
      <path class="cls-1" d="M35.47,24.15c-1-.92-2.46-1.13-3.7-.56-.9.42-1.43,1.26-1.69,2.19-.59,2.18-.05,4.73,1.18,6.6.83,1.26,2.15,2.42,3.77,2.21.47-.06.88-.36.88-.88,0-.43-.4-.94-.88-.88-1.2.16-2.01-.84-2.54-1.8-.46-.85-.8-1.83-.87-2.79-.07-.9-.06-2.01.5-2.78.03-.05.03-.04-.02.03.04-.04.07-.08.11-.12.02-.02.19-.16.11-.1.18-.13.37-.19.58-.23.47-.09.96.01,1.32.34.83.76,2.07-.48,1.24-1.24h0Z"/>
      <path class="cls-1" d="M.85,88.12h13.71c1.13,0,1.13-1.75,0-1.75H.85c-1.13,0-1.13,1.75,0,1.75h0Z"/>
      <path class="cls-1" d="M85.16,88.12h13.99c1.13,0,1.13-1.75,0-1.75h-13.99c-1.13,0-1.13,1.75,0,1.75h0Z"/>
      <path class="cls-1" d="M44.81,98.14c-.29-.54-.59-1.07-.89-1.61-2.06-3.66-4.17-7.3-6.29-10.94-1-1.72-2.01-3.44-3.03-5.16-.35-.59-.7-1.18-1.06-1.76-.21-.34-.41-.7-.74-.93-.71-.5-1.58-.33-2.24.16-.63.46-.78,1.21-.54,1.9.02.08.05.16.1.24,1.37,2.38,2.94,4.65,4.43,6.95,2.11,3.25,4.22,6.5,6.36,9.73.6.9,1.18,1.81,1.81,2.69.39.55,1.06.9,1.71.52.69-.4.72-1.17.39-1.81h0Z"/>
      <path class="cls-1" d="M31.89,85.74c1.22-.18,2.5-.26,3.71.05,1.17.3,2.04,1,2.95,1.75.85.69,1.77,1.42,2.34,2.36.38.63.59,1.63-.21,2.11-.96.59-.08,2.1.88,1.51.92-.56,1.48-1.72,1.41-2.8-.07-1.12-.76-2.11-1.5-2.9-.73-.78-1.58-1.43-2.4-2.1-1-.82-2.09-1.44-3.36-1.71-1.43-.29-2.86-.18-4.29.03-.47.07-.73.66-.61,1.08.14.5.61.68,1.08.61h0Z"/>
      <path class="cls-1" d="M29.45,97.97c.75.84,1.58,1.61,2.52,2.23.38.25.99.09,1.2-.31.23-.44.1-.93-.31-1.2-.2-.13-.39-.27-.58-.41l.18.14c-.64-.5-1.23-1.07-1.77-1.68-.31-.34-.93-.33-1.24,0-.34.37-.33.87,0,1.24h0Z"/>
      <path class="cls-1" d="M31.24,95.29c1.55,1.68,3.22,3.21,5.04,4.59.37.28,1,.07,1.2-.31.24-.46.08-.9-.31-1.2-.06-.04-.11-.09-.17-.13-.04-.03-.15-.12-.06-.05-.11-.09-.22-.17-.33-.26-.2-.16-.41-.33-.61-.49-.4-.34-.8-.68-1.18-1.04-.81-.75-1.58-1.54-2.33-2.35-.31-.34-.93-.34-1.24,0-.33.36-.33.88,0,1.24h0Z"/>
      <path class="cls-1" d="M33.61,92.78c1.62,1.94,3.35,3.75,5.24,5.44.34.3.91.36,1.24,0,.31-.33.37-.91,0-1.24-1.89-1.68-3.61-3.5-5.24-5.44-.3-.35-.94-.33-1.24,0-.34.38-.31.86,0,1.24h0Z"/>
      <path class="cls-1" d="M31.43,84.05c-1.9.3-3.94.8-5.44,2.07-.69.59-1.26,1.4-1.76,2.14-.57.83-1.07,1.74-1.38,2.7-.3.95-.27,1.78.33,2.6.57.78,1.24,1.45,1.67,2.33.51,1.04.84,2.15,1.5,3.12.6.87,1.35,1.55,2.21,2.15.5.34,1.05.76,1.64.91.56.14,1.15.07,1.67-.17,1.01-.46,1.73-1.58,1.4-2.69l-1.46.85c1.12.88,2.43,1.59,3.89,1.11.85-.28,2.27-1.19,1.88-2.27l-1.29.99c1.17.75,2.79,1.05,3.92.05.46-.41.77-.98.69-1.61-.1-.69-.6-1.2-1.12-1.61l-.85,1.46c1.02.28,2.25.26,3.01-.59.57-.64.74-1.58.29-2.33-.4-.68-.99-1.28-1.5-1.88-.48-.56-.97-1.1-1.41-1.68-.74-.97-1.33-2.03-1.94-3.08-.57-.97-2.08-.09-1.51.88.6,1.03,1.18,2.07,1.9,3.03.54.72,1.13,1.4,1.72,2.08.31.36.61.72.91,1.08.02.03.23.3.12.15.05.06.09.12.14.19.03.05.06.1.09.14.03.06.03.04-.02-.06.01.04.02.08.03.12-.01-.12-.02-.14-.01-.07,0,.03,0,.07,0,.1.11-.2-.02.04-.04.1.09-.25-.1.12-.02.02.09-.11-.21.17-.03.04-.03.03-.29.14-.18.11,0,0-.24.07-.16.05-.31.05-.61-.02-.91-.09-.78-.21-1.57.9-.85,1.46.18.14.36.28.51.45.05.06.16.21.14.21-.06,0,0-.14,0-.17.02.07-.06.09,0,.01-.08.08-.13.17-.23.24-.56.36-1.3-.02-1.78-.33-.62-.4-1.55.27-1.29.99v-.12c.09-.26.1-.33.04-.22,0,0,.01,0-.02.01-.11.06-.11.11-.24.19-.13.09-.27.16-.41.23-.09.05-.08.03,0,0-.06.02-.12.04-.18.05-.77.19-1.45-.24-2.03-.7-.64-.5-1.73-.06-1.46.85.04.12.05.09,0,.21.04-.11-.12.2-.08.14-.15.2-.41.34-.62.37-.33.04-.58-.18-.85-.35-.36-.23-.73-.46-1.06-.73-.69-.56-1.21-1.23-1.61-2.02-.42-.81-.69-1.69-1.11-2.5-.41-.79-1.02-1.41-1.55-2.11-.09-.11-.17-.23-.24-.36-.05-.09-.07-.07-.09-.22.02.14.03-.16.04-.21.04-.2.1-.4.16-.59.26-.77.7-1.49,1.16-2.16.39-.57.82-1.15,1.32-1.63,1.23-1.17,3.23-1.53,4.84-1.78.47-.07.73-.66.61-1.08-.14-.5-.61-.68-1.08-.61h0Z"/>
      <path class="cls-1" d="M65.87,92.22c-.9.71-1.78,1.44-2.64,2.19-.75.65-1.52,1.27-2.22,1.97-.72.72-1.38,1.59-1.33,2.66s.6,1.97,1.63,2.34c1.07.39,2.35.08,3.3-.47.98-.56.1-2.07-.88-1.51-.33.19-.77.34-1.1.38-.22.02-.45.02-.57,0-.19-.04-.33-.11-.38-.14-.04-.03-.07-.07-.1-.11.06.07.06.07,0-.02-.07-.17,0,.05-.06-.12-.08-.23-.09-.3-.07-.55.03-.29.31-.67.51-.89.71-.79,1.56-1.45,2.37-2.15.92-.8,1.85-1.58,2.8-2.33.37-.29.31-.93,0-1.24-.37-.37-.87-.29-1.24,0h0Z"/>
      <path class="cls-1" d="M60.58,96.76c-.21.04.17.01-.05,0-.04,0-.26-.02-.06.01-.02,0-.22-.04-.12-.02.03,0-.03-.02-.04-.03-.01-.01-.12-.15-.09-.1-.02-.02-.14-.31-.09-.15-.01-.04-.05-.27-.04-.1,0-.07,0-.15,0-.23,0-.06,0-.06,0,0l.02-.1c.02-.1.05-.2.08-.29.05-.14.14-.31.25-.47.19-.27.44-.48.66-.72,1.22-1.3,2.59-2.39,4-3.47.38-.29.57-.75.31-1.2-.22-.37-.82-.6-1.2-.31-1.75,1.34-3.51,2.68-4.95,4.37-.69.81-1.19,2-.8,3.06.41,1.12,1.42,1.67,2.57,1.43.46-.1.73-.64.61-1.08-.13-.48-.61-.71-1.08-.61h0Z"/>
      <path class="cls-1" d="M68.81,94.19c-1.17.93-2.35,1.84-3.47,2.81-1.03.89-2.28,2.02-1.93,3.53.39,1.65,2.27,1.93,3.63,1.39,1.26-.5,2.28-1.51,3.37-2.28,1.04-.73,2.1-1.43,3.09-2.22.37-.3.31-.93,0-1.24-.37-.37-.87-.3-1.24,0-.03.02-.12.09,0,0-.03.02-.07.05-.1.07-.09.06-.17.13-.26.19-.2.15-.4.29-.6.43-.42.3-.85.6-1.28.89-.87.61-1.7,1.28-2.57,1.88-.46.32-.89.61-1.37.73-.34.08-.8.13-.97-.19-.05-.09-.06-.22-.03-.33.04-.18.16-.33.27-.46.39-.47.85-.87,1.31-1.26,1.09-.93,2.23-1.81,3.35-2.71.37-.29.31-.93,0-1.24-.37-.37-.87-.3-1.24,0h0Z"/>
      <path class="cls-1" d="M61.58,91.36c-.35,0-.44-.42-.39-.68.07-.37.47-.7.83-.97.99-.75,2.18-1.39,3.35-1.8,1.12-.4,2.3-.57,3.49-.62s2.48,0,3.6.45c.9.36,1.73.91,2.33,1.48.67.64,1.23,1.3,1.56,2.18.41,1.08.5,2.16.24,3.29-.21.92-.7,1.65-1.35,2.32-.44.46-.91.89-1.39,1.31-.43.38-.85.79-1.36,1.07-.41.23-.93.38-1.35.18.03.01.08.02.09.05.01.03-.07-.21-.08-.27.01.11,0-.21,0-.18-.01.14.1-.28,0-.07.2-.43.12-.94-.31-1.2-.38-.22-1-.12-1.2.31-.56,1.2-.12,2.81,1.28,3.12,1.56.35,2.83-.62,3.94-1.59,1.01-.88,2.09-1.82,2.77-2.99.69-1.19.97-2.73.81-4.09-.17-1.45-.74-2.78-1.68-3.89-.83-.96-1.8-1.72-2.93-2.31-1.44-.75-3.08-.97-4.68-.93-1.55.03-3.14.25-4.59.82-.88.35-1.73.78-2.55,1.27-.74.44-1.49.94-2.03,1.63-.49.63-.7,1.49-.48,2.28.25.89,1.16,1.57,2.07,1.6,1.13.03,1.13-1.72,0-1.75h0Z"/>
      <path class="cls-1" d="M33.18,24.06c-1.36-4.51-1.07-9.6,1.48-13.66.67-1.07,1.49-2.02,2.44-2.85.85-.74-.39-1.98-1.24-1.24-3.83,3.36-5.53,8.61-5.21,13.61.1,1.56.38,3.11.83,4.6.32,1.08,2.02.62,1.69-.47h0Z"/>
      <path class="cls-1" d="M62.31,8.32c3.52,2.86,4.5,7.76,4.29,12.08-.06,1.28-.24,2.55-.53,3.79-.26,1.1,1.43,1.56,1.69.47,1.11-4.74.9-10.25-1.62-14.53-.68-1.15-1.55-2.21-2.59-3.05-.37-.3-.88-.36-1.24,0-.31.31-.37.94,0,1.24h0Z"/>
      <path class="cls-1" d="M54.66,17.79c1.47.65,2.66,1.61,3.77,2.77s2.18,2.53,2.78,4.02c.18.44.58.75,1.08.61.42-.11.79-.64.61-1.08-.71-1.76-1.84-3.32-3.14-4.7-1.22-1.29-2.58-2.41-4.21-3.13-.43-.19-.94-.13-1.2.31-.22.37-.12,1.01.31,1.2h0Z"/>
      <path class="cls-1" d="M37.82,24.84c1.75-1.96,3.68-3.89,5.86-5.37.23-.15.45-.3.69-.44.05-.03.14-.07.19-.11.12-.11.14.04-.08-.03-.33-.09-.34-.3-.29.08.04.32-.04.64.02.96.08.4.32.76.67.97.69.41,1.33.05,1.94-.31.56-.32,1.11-.65,1.66-.98,1.34-.79,2.69-1.58,4.12-2.19.43-.19.53-.83.31-1.2-.26-.45-.76-.5-1.2-.31-1.28.55-2.49,1.25-3.7,1.95-.58.34-1.15.68-1.73,1.02-.24.14-.49.29-.74.43-.02.01-.18.1-.18.1h.19c.13-.06.22-.03.27.08.26.1-.01.14.1.04.03-.03.01-.27.01-.29,0-.78-.23-1.74-1.06-2.01-.67-.22-1.26.19-1.8.54-1.17.76-2.25,1.66-3.28,2.6-1.13,1.02-2.21,2.11-3.23,3.25-.75.84.49,2.08,1.24,1.24h0Z"/>
      <path class="cls-1" d="M34.4,100.15c-.81,4.02-1.63,8.04-2.43,12.06-.18.93-.79,2.38.23,3.01.22.13.47.17.72.18.25.01.51,0,.76,0h32.21c.31,0,.61,0,.92,0,.05,0,.11,0,.16,0,.31-.02.6-.11.83-.32.45-.42.44-.93.33-1.49-.69-3.55-1.41-7.09-2.13-10.64-.07-.37-.15-.74-.22-1.11-.03-.17-.07-.34-.1-.51-.02-.09-.08-.61-.08-.31,0-1.13-1.75-1.13-1.75,0,0,.32.12.68.19,1,.07.36.15.72.22,1.08.17.83.34,1.66.5,2.48.36,1.77.71,3.53,1.07,5.3.17.85.34,1.71.51,2.56.04.19.05.42.12.61.18.5.31-.57.53-.41-.01,0-.04,0-.05,0-.18-.06-.49,0-.68,0h-32.84c-.16,0-.38-.04-.53,0,0,0,0,0-.01,0h0c.32.6.49.74.53.43.04-.1.04-.22.06-.33.1-.52.21-1.05.31-1.57.2-1,.4-2.01.6-3.01.39-1.95.79-3.91,1.19-5.86.18-.9.36-1.79.54-2.69.09-.46-.13-.95-.61-1.08-.43-.12-.98.15-1.08.61h0Z"/>
      <path class="cls-1" d="M48.5,110.91h13.25c1.13,0,1.13-1.75,0-1.75h-13.25c-1.13,0-1.13,1.75,0,1.75h0Z"/>
      <path class="cls-1" d="M37.33,110.91h6.5c1.13,0,1.13-1.75,0-1.75h-6.5c-1.13,0-1.13,1.75,0,1.75h0Z"/>
      <path class="cls-1" d="M40.02,93.12h21.95c1.13,0,1.13-1.75,0-1.75h-21.95c-1.13,0-1.13,1.75,0,1.75h0Z"/>
      <path class="cls-1" d="M47.89,101.63h1.84c.22,0,.46-.1.62-.26.15-.15.27-.4.26-.62-.02-.47-.39-.88-.88-.88h-1.84c-.22,0-.46.1-.62.26-.15.15-.27.4-.26.62.02.47.39.88.88.88h0Z"/>
      <path class="cls-1" d="M53.44,97.17h1.69c.22,0,.46-.1.62-.26.15-.15.27-.4.26-.62-.01-.23-.08-.46-.26-.62s-.38-.26-.62-.26h-1.69c-.22,0-.46.1-.62.26-.15.15-.27.4-.26.62.01.23.08.46.26.62s.38.26.62.26h0Z"/>
      <path class="cls-1" d="M54.99,106.58h1.95c.22,0,.46-.1.62-.26.15-.15.27-.4.26-.62-.01-.23-.08-.46-.26-.62s-.38-.26-.62-.26h-1.95c-.22,0-.46.1-.62.26-.15.15-.27.4-.26.62.01.23.08.46.26.62s.38.26.62.26h0Z"/>
    </g>
  </g>
</svg>